<?xml version="1.0" standalone="no"?>
<!DOCTYPE svg PUBLIC "-//W3C//DTD SVG 1.1//EN" "http://www.w3.org/Graphics/SVG/1.1/DTD/svg11.dtd" >
<svg xmlns="http://www.w3.org/2000/svg" xmlns:xlink="http://www.w3.org/1999/xlink" version="1.1">
<metadata>
Created by FontForge 20161116 at Thu Oct 18 18:40:55 2012
 By Jimmy Wärting
Copyright (c) 2011 by Bernd Montag, with Reserved Font Name 'Sansation'
</metadata>
<defs>
<font id="Sansation-Light" horiz-adv-x="1185" >
  <font-face 
    font-family="Sansation Light"
    font-weight="300"
    font-stretch="normal"
    units-per-em="2048"
    panose-1="2 0 0 0 0 0 0 0 0 0"
    ascent="1638"
    descent="-410"
    x-height="1050"
    cap-height="1430"
    bbox="-150 -434 2370 1854"
    underline-thickness="90"
    underline-position="-209"
    unicode-range="U+0020-FB02"
  />
<missing-glyph horiz-adv-x="1144" 
d="M60 0v1280h1024v-1280h-1024zM92 32h960v1216h-960v-1216z" />
    <glyph glyph-name="fi" unicode="fi" horiz-adv-x="1061" 
d="M891 1050v-1050h-105v960h-521v-960h-105v1121q0 381 392 381q149 0 279 -70v-90q-124 70 -280 70q-286 0 -286 -283v-79h626z" />
    <glyph glyph-name="fl" unicode="fl" horiz-adv-x="1081" 
d="M816 1378q-119 34 -245 34q-306 0 -306 -283v-79h315v-90h-315v-960h-105v1121q0 381 412 381q169 0 349 -70v-1432h-105v1378z" />
    <glyph glyph-name="ffi" unicode="ffi" horiz-adv-x="1708" 
d="M797 1050v71q0 381 392 381q149 0 279 -70v-90q-124 70 -280 70q-286 0 -286 -283v-79h636v-1050h-105v960h-531v-960h-106v960h-531v-960h-105v1111q0 381 332 381q99 0 189 -40v-90q-84 40 -190 40q-226 0 -226 -283v-69h532z" />
    <glyph glyph-name="ffl" unicode="ffl" horiz-adv-x="1717" 
d="M796 960h-531v-960h-105v1111q0 381 332 381q99 0 189 -40v-90q-84 40 -190 40q-226 0 -226 -283v-69h531v71q0 381 412 381q169 0 349 -70v-1432h-105v1378q-119 34 -245 34q-306 0 -306 -283v-79h315v-90h-315v-960h-105v960z" />
    <glyph glyph-name="ff" unicode="ff" horiz-adv-x="1332" 
d="M796 960h-531v-960h-105v1101q0 381 332 381q99 0 189 -40v-90q-84 40 -190 40q-226 0 -226 -283v-59h531v61q0 381 422 381q129 0 234 -40v-90q-99 40 -235 40q-316 0 -316 -293v-59h395v-90h-395v-960h-105v960z" />
    <glyph glyph-name="fj" unicode="fj" horiz-adv-x="1061" 
d="M786 960h-521v-960h-105v1121q0 381 392 381q149 0 279 -70v-90q-124 70 -280 70q-286 0 -286 -283v-79h626v-970q0 -318 -155 -448l-75 65q125 85 125 383v880z" />
    <glyph glyph-name="ffj" unicode="ffj" horiz-adv-x="1698" 
d="M796 0v960h-531v-960h-105v1111q0 381 332 381q99 0 189 -40v-90q-84 40 -190 40q-226 0 -226 -283v-69h532v71q0 381 392 381q149 0 279 -70v-90q-124 70 -280 70q-286 0 -286 -283v-79h626v-970q0 -318 -155 -448l-75 65q125 85 125 383v880h-521v-960h-106z" />
    <glyph glyph-name="fb" unicode="fb" horiz-adv-x="1081" 
d="M921 896v-773q171 -29 301 -29q410 0 410 459q0 397 -377 397q-144 0 -334 -54zM816 1378q-119 34 -245 34q-306 0 -306 -283v-79h315v-90h-315v-960h-105v1121q0 381 412 381q169 0 349 -70v-432q199 50 335 50q478 0 478 -504q0 -546 -503 -546q-226 0 -415 43v1335z
" />
    <glyph glyph-name="ffb" unicode="ffb" horiz-adv-x="2480" 
d="M1557 896v-773q171 -29 301 -29q410 0 410 459q0 397 -377 397q-144 0 -334 -54zM796 960h-531v-960h-105v1111q0 381 332 381q99 0 189 -40v-90q-84 40 -190 40q-226 0 -226 -283v-69h531v71q0 381 412 381q169 0 349 -70v-432q199 50 335 50q478 0 478 -504
q0 -546 -503 -546q-226 0 -415 43v1335q-119 34 -245 34q-306 0 -306 -283v-79h315v-90h-315v-960h-105v960z" />
    <glyph glyph-name="fh" unicode="fh" horiz-adv-x="1841" 
d="M816 1378q-119 34 -245 34q-306 0 -306 -283v-79h315v-90h-315v-960h-105v1121q0 381 412 381q169 0 349 -70v-496q184 114 377 114q383 0 383 -391v-659h-105v702q0 254 -283 254q-189 0 -372 -133v-823h-105v1378z" />
    <glyph glyph-name="ffh" unicode="ffh" horiz-adv-x="2477" 
d="M796 960h-531v-960h-105v1111q0 381 332 381q99 0 189 -40v-90q-84 40 -190 40q-226 0 -226 -283v-69h531v71q0 381 412 381q169 0 349 -70v-496q184 114 377 114q383 0 383 -391v-659h-105v702q0 254 -283 254q-189 0 -372 -133v-823h-105v1378q-119 34 -245 34
q-306 0 -306 -283v-79h315v-90h-315v-960h-105v960z" />
    <glyph glyph-name="fk" unicode="fk" horiz-adv-x="1767" 
d="M816 1378q-119 34 -245 34q-306 0 -306 -283v-79h315v-90h-315v-960h-105v1121q0 381 412 381q169 0 349 -70v-464q193 82 413 82q372 0 372 -303q0 -230 -330 -314l356 -433h-154l-334 435v63q357 41 357 250q0 212 -290 212q-193 0 -390 -94v-866h-105v1378z" />
    <glyph glyph-name="ffk" unicode="ffk" horiz-adv-x="2403" 
d="M796 960h-531v-960h-105v1111q0 381 332 381q99 0 189 -40v-90q-84 40 -190 40q-226 0 -226 -283v-69h531v71q0 381 412 381q169 0 349 -70v-464q193 82 413 82q372 0 372 -303q0 -230 -330 -314l356 -433h-154l-334 435v63q357 41 357 250q0 212 -290 212
q-193 0 -390 -94v-866h-105v1378q-119 34 -245 34q-306 0 -306 -283v-79h315v-90h-315v-960h-105v960z" />
    <glyph glyph-name=".notdef" horiz-adv-x="1144" 
d="M60 0v1280h1024v-1280h-1024zM92 32h960v1216h-960v-1216z" />
    <glyph glyph-name=".null" horiz-adv-x="20" 
 />
    <glyph glyph-name="nonmarkingreturn" horiz-adv-x="410" 
 />
    <glyph glyph-name="space" unicode=" " horiz-adv-x="500" 
 />
    <glyph glyph-name="exclam" unicode="!" horiz-adv-x="425" 
d="M265 1430v-1060h-105v1060h105zM265 105v-105h-105v105h105z" />
    <glyph glyph-name="quotedbl" unicode="&#x22;" horiz-adv-x="625" 
d="M515 1430l-30 -435h-55l-30 435h115zM225 1430l-30 -435h-55l-30 435h115z" />
    <glyph glyph-name="numbersign" unicode="#" horiz-adv-x="1903" 
d="M733 906l-110 -438h457l110 438h-457zM403 -5l99 379h-392l20 94h392l109 438h-401l20 94h402l110 425h100l-110 -425h458l112 430h100l-111 -430h482l-20 -94h-482l-109 -438h491l-20 -94h-492l-100 -379h-100l100 379h-458l-100 -379h-100z" />
    <glyph glyph-name="dollar" unicode="$" horiz-adv-x="1030" 
d="M479 1238v192h95v-190q155 -4 316 -50v-100q-175 60 -343 60q-332 0 -332 -210q0 -180 225 -180h130q350 0 350 -270q0 -267 -346 -296v-194h-95v190q-167 1 -339 50v100q175 -60 344 -60q331 0 331 210q0 170 -245 170h-130q-330 0 -330 280q0 276 369 298z" />
    <glyph glyph-name="percent" unicode="%" horiz-adv-x="1362" 
d="M235 0h-125l1017 1430h125zM388 1005q174 0 174 177q0 174 -174 174q-178 0 -178 -174q0 -177 178 -177zM110 1180q0 260 278 260q274 0 274 -260q0 -259 -274 -259q-278 0 -278 259zM978 74q174 0 174 177q0 174 -174 174q-178 0 -178 -174q0 -177 178 -177zM700 249
q0 260 278 260q274 0 274 -260q0 -259 -274 -259q-278 0 -278 259z" />
    <glyph glyph-name="ampersand" unicode="&#x26;" horiz-adv-x="1295" 
d="M110 1045q0 385 510 385q185 0 360 -50v-90q-185 50 -357 50q-408 0 -408 -290q0 -280 335 -280h468v172h73l22 -172h172v-90h-162v-190q0 -493 -518 -493q-495 0 -495 397q0 247 223 333q-223 65 -223 318zM552 680q-337 0 -337 -281q0 -309 381 -309q422 0 422 402v188
h-466z" />
    <glyph glyph-name="quotesingle" unicode="'" horiz-adv-x="335" 
d="M225 1430l-30 -435h-55l-30 435h115z" />
    <glyph glyph-name="parenleft" unicode="(" horiz-adv-x="525" 
d="M415 1430q-200 -452 -200 -905t200 -905h-105q-200 452 -200 905t200 905h105z" />
    <glyph glyph-name="parenright" unicode=")" horiz-adv-x="525" 
d="M215 1430q200 -452 200 -905t-200 -905h-105q200 452 200 905t-200 905h105z" />
    <glyph glyph-name="asterisk" unicode="*" horiz-adv-x="830" 
d="M338 1430h156l-30 -232l209 101l48 -147l-228 -43l159 -170l-123 -92l-113 205l-113 -204l-124 89l161 171l-230 42l48 150l211 -103z" />
    <glyph glyph-name="plus" unicode="+" horiz-adv-x="970" 
d="M440 570v330h100v-330h320v-90h-320v-330h-100v330h-330v90h330z" />
    <glyph glyph-name="comma" unicode="," horiz-adv-x="305" 
d="M280 185l-150 -435h-105l150 435h105z" />
    <glyph glyph-name="hyphen" unicode="-" horiz-adv-x="720" 
d="M610 570v-90h-500v90h500z" />
    <glyph glyph-name="hyphen" unicode="&#x2010;" horiz-adv-x="720" 
d="M610 570v-90h-500v90h500z" />
    <glyph glyph-name="period" unicode="." horiz-adv-x="355" 
d="M245 125v-125h-135v125h135z" />
    <glyph glyph-name="slash" unicode="/" horiz-adv-x="985" 
d="M150 0h-115l725 1430h115z" />
    <glyph glyph-name="zero" unicode="0" horiz-adv-x="1445" 
d="M728 80q492 0 492 639q0 631 -492 631q-503 0 -503 -631q0 -639 503 -639zM110 713q0 727 618 727q607 0 607 -727q0 -723 -607 -723q-586 0 -618 723z" />
    <glyph glyph-name="one" unicode="1" horiz-adv-x="605" 
d="M260 0v1311h-150v59l255 70v-1440h-105z" />
    <glyph glyph-name="two" unicode="2" horiz-adv-x="1230" 
d="M110 0v90q875 607 875 930q0 330 -420 330q-220 0 -415 -110v100q195 100 415 100q525 0 525 -420q0 -370 -824 -930h824v-90h-980z" />
    <glyph glyph-name="three" unicode="3" horiz-adv-x="1160" 
d="M110 1380q200 60 400 60q515 0 515 -390q0 -256 -238 -325q238 -65 238 -325q0 -410 -515 -410q-200 0 -400 60v100q200 -70 400 -70q410 0 410 320q0 280 -332 280h-328v90h325q335 0 335 280q0 300 -410 300q-200 0 -400 -70v100z" />
    <glyph glyph-name="four" unicode="4" horiz-adv-x="1220" 
d="M987 0h-105v340h-822v90l625 1000h114l-626 -1000h709v568h105v-568l158 -36v-54h-158v-340z" />
    <glyph glyph-name="five" unicode="5" horiz-adv-x="1145" 
d="M165 1430h824v-90h-736l-34 -522q187 22 316 22q510 0 510 -400q0 -450 -530 -450q-200 0 -400 60v100q200 -70 410 -70q415 0 415 360q0 310 -405 310q-225 0 -420 -50z" />
    <glyph glyph-name="six" unicode="6" horiz-adv-x="1250" 
d="M110 550q0 556 658 923l46 -77q-439 -263 -544 -539q181 63 356 63q524 0 524 -450q0 -480 -513 -480q-527 0 -527 560zM646 80q403 0 403 390q0 360 -422 360q-214 0 -384 -68q-38 -70 -38 -206q0 -476 441 -476z" />
    <glyph glyph-name="seven" unicode="7" horiz-adv-x="1135" 
d="M110 1430h970v-90l-662 -1340h-121l672 1340h-859v90z" />
    <glyph glyph-name="eight" unicode="8" horiz-adv-x="1260" 
d="M110 424q0 243 252 321q-212 85 -212 333q0 366 480 366t480 -366q0 -248 -217 -333q257 -78 257 -321q0 -434 -520 -434t-520 434zM1005 1058q0 292 -383 292q-367 0 -367 -292q0 -268 380 -268q370 0 370 268zM1045 418q0 282 -423 282q-407 0 -407 -282
q0 -338 420 -338q410 0 410 338z" />
    <glyph glyph-name="nine" unicode="9" horiz-adv-x="1210" 
d="M1150 883q0 -556 -658 -923l-56 77q449 263 554 539q-181 -63 -356 -63q-524 0 -524 450q0 480 513 480q527 0 527 -560zM614 1353q-403 0 -403 -390q0 -360 422 -360q214 0 384 68q38 70 38 206q0 476 -441 476z" />
    <glyph glyph-name="colon" unicode=":" horiz-adv-x="395" 
d="M285 1050v-125h-135v125h135zM285 125v-125h-135v125h135z" />
    <glyph glyph-name="semicolon" unicode=";" horiz-adv-x="545" 
d="M365 185l-150 -435h-105l150 435h105zM385 1050v-125h-135v125h135z" />
    <glyph glyph-name="less" unicode="&#x3c;" horiz-adv-x="1120" 
d="M110 470v110l900 420v-110l-813 -369l813 -361v-110z" />
    <glyph glyph-name="equal" unicode="=" horiz-adv-x="970" 
d="M860 420v-90h-750v90h750zM860 720v-90h-750v90h750z" />
    <glyph glyph-name="greater" unicode="&#x3e;" horiz-adv-x="1120" 
d="M110 50v110l813 361l-813 369v110l900 -420v-110z" />
    <glyph glyph-name="question" unicode="?" horiz-adv-x="1135" 
d="M405 105v-105h-105v105h105zM110 1380q210 50 400 50q515 0 515 -390t-497 -390h-123v-280h-105v370h225q395 0 395 300t-410 300q-190 0 -400 -50v90z" />
    <glyph glyph-name="at" unicode="@" horiz-adv-x="2170" 
d="M1490 98q0 -158 150 -158q265 0 265 600q0 810 -806 810q-834 0 -834 -810q0 -830 765 -830v-90q-870 0 -870 920q0 900 924 900q926 0 926 -900q0 -690 -377 -690q-248 0 -248 254q-180 -104 -365 -104q-355 0 -355 297q0 313 406 313q147 0 314 -20v129q0 241 -303 241
q-162 0 -332 -50v90q170 50 332 50q408 0 408 -326v-626zM1071 520q-301 0 -301 -220q0 -210 250 -210q192 0 365 102v308q-167 20 -314 20z" />
    <glyph glyph-name="A" unicode="A" horiz-adv-x="1492" 
d="M147 0h-112l647 1430h125l650 -1430h-125l-212 480h-641l31 90h571l-343 778z" />
    <glyph glyph-name="B" unicode="B" horiz-adv-x="1330" 
d="M160 0v1430h610q408 0 408 -333q0 -244 -296 -349q314 -53 314 -335q0 -413 -447 -413h-589zM738 90q346 0 346 320q0 283 -433 283h-80v71q500 45 500 326q0 250 -308 250h-498v-1250h473z" />
    <glyph glyph-name="C" unicode="C" horiz-adv-x="1405" 
d="M1260 50q-195 -60 -400 -60q-750 0 -750 745q0 705 750 705q205 0 400 -60v-90q-195 60 -380 60q-665 0 -665 -615q0 -655 665 -655q185 0 380 60v-90z" />
    <glyph glyph-name="D" unicode="D" horiz-adv-x="1470" 
d="M660 90q595 0 595 664q0 586 -595 586h-395v-1250h395zM160 0v1430h510q700 0 700 -676q0 -754 -710 -754h-500z" />
    <glyph glyph-name="E" unicode="E" horiz-adv-x="1248" 
d="M1099 1430v-90h-834v-570h800v-90h-800v-590h848v-90h-953v1430h939z" />
    <glyph glyph-name="F" unicode="F" horiz-adv-x="1174" 
d="M1099 1430v-90h-834v-570h800v-90h-800v-680h-105v1430h939z" />
    <glyph glyph-name="G" unicode="G" horiz-adv-x="1405" 
d="M1260 56q-183 -66 -383 -66q-767 0 -767 745q0 705 750 705q205 0 400 -60v-90q-195 60 -380 60q-665 0 -665 -615q0 -655 646 -655q132 0 294 44v526h105v-594z" />
    <glyph glyph-name="H" unicode="H" horiz-adv-x="1505" 
d="M160 0v1430h105v-660h975v660h105v-1430h-105v680h-975v-680h-105z" />
    <glyph glyph-name="I" unicode="I" horiz-adv-x="525" 
d="M315 1430v-1430h-105v1430h105z" />
    <glyph glyph-name="J" unicode="J" horiz-adv-x="650" 
d="M490 1430v-1018q0 -412 -455 -412v90q350 0 350 322v1018h105z" />
    <glyph glyph-name="K" unicode="K" horiz-adv-x="1300" 
d="M265 1430v-1430h-105v1430h105zM1246 1430l-681 -677l705 -753h-157l-653 718v62l642 650h144z" />
    <glyph glyph-name="L" unicode="L" horiz-adv-x="1143" 
d="M265 1430v-1340h828v-90h-933v1430h105z" />
    <glyph glyph-name="M" unicode="M" horiz-adv-x="1770" 
d="M160 0v1430h105l645 -1307l605 1307h95v-1430h-95v1237l-568 -1237h-86l-606 1247v-1247h-95z" />
    <glyph glyph-name="N" unicode="N" horiz-adv-x="1505" 
d="M160 0v1430h135l955 -1252v1252h95v-1430h-85l-1005 1312v-1312h-95z" />
    <glyph glyph-name="O" unicode="O" horiz-adv-x="1645" 
d="M828 80q592 0 592 639q0 631 -592 631q-603 0 -603 -631q0 -639 603 -639zM110 713q0 727 718 727q707 0 707 -727q0 -723 -707 -723q-718 0 -718 723z" />
    <glyph glyph-name="P" unicode="P" horiz-adv-x="1263" 
d="M160 0v1430h600q418 0 418 -393q0 -387 -669 -493l-18 96q570 79 570 389q0 308 -318 308h-478v-1337h-105z" />
    <glyph glyph-name="Q" unicode="Q" horiz-adv-x="1645" 
d="M828 90q592 0 592 629q0 631 -592 631q-603 0 -603 -631q0 -629 603 -629zM110 713q0 727 718 727q707 0 707 -727q0 -598 -535 -716l262 -300l-94 -68l-310 361q-748 0 -748 723z" />
    <glyph glyph-name="R" unicode="R" horiz-adv-x="1235" 
d="M160 0v1430h590q388 0 388 -343q0 -297 -421 -421l483 -666h-144l-475 663v71q440 65 440 345q0 258 -288 258h-468v-1337h-105z" />
    <glyph glyph-name="S" unicode="S" horiz-adv-x="1310" 
d="M150 50v110q225 -80 496 -80q449 0 449 340q0 250 -292 250h-294q-399 0 -399 360q0 410 585 410q240 0 465 -60v-100q-225 70 -465 70q-480 0 -480 -320q0 -260 294 -260h294q397 0 397 -350q0 -430 -554 -430q-271 0 -496 60z" />
    <glyph glyph-name="T" unicode="T" horiz-adv-x="1095" 
d="M1085 1430v-90h-490v-1340h-105v1340h-480v90h1075z" />
    <glyph glyph-name="U" unicode="U" horiz-adv-x="1470" 
d="M160 552v878h105v-878q0 -472 470 -472t470 472v878h105v-878q0 -562 -575 -562t-575 562z" />
    <glyph glyph-name="V" unicode="V" horiz-adv-x="1492" 
d="M1457 1430l-627 -1430h-165l-630 1430h115l601 -1349l594 1349h112z" />
    <glyph glyph-name="W" unicode="W" horiz-adv-x="1869" 
d="M35 1430h109l233 -1329l462 1329h105l475 -1342l265 1342h101l-289 -1430h-152l-452 1306l-453 -1306h-149z" />
    <glyph glyph-name="X" unicode="X" horiz-adv-x="1320" 
d="M598 715l-563 715h125l500 -636l500 636h125l-562 -715l562 -715h-125l-500 636l-500 -636h-125z" />
    <glyph glyph-name="Y" unicode="Y" horiz-adv-x="1250" 
d="M35 1430h125l463 -830l477 830h115l-536 -930v-500h-105v500z" />
    <glyph glyph-name="Z" unicode="Z" horiz-adv-x="1270" 
d="M1135 1430v-90l-867 -1250h847v-90h-980v80l894 1260h-874v90h980z" />
    <glyph glyph-name="bracketleft" unicode="[" horiz-adv-x="565" 
d="M530 1430v-90h-275v-1630h275v-90h-370v1810h370z" />
    <glyph glyph-name="backslash" unicode="\" horiz-adv-x="985" 
d="M35 1430h115l725 -1430h-115z" />
    <glyph glyph-name="bracketright" unicode="]" horiz-adv-x="565" 
d="M405 1430v-1810h-370v90h275v1630h-275v90h370z" />
    <glyph glyph-name="asciicircum" unicode="^" horiz-adv-x="1070" 
d="M460 1430h150l400 -730h-110l-369 673l-361 -673h-110z" />
    <glyph glyph-name="underscore" unicode="_" horiz-adv-x="1070" 
d="M1035 0v-90h-1000v90h1000z" />
    <glyph glyph-name="grave" unicode="`" horiz-adv-x="523" 
d="M423 1191h-84l-239 239h159z" />
    <glyph glyph-name="a" unicode="a" horiz-adv-x="1095" 
d="M100 297q0 313 416 313q147 0 314 -20v129q0 241 -303 241q-162 0 -332 -50v90q170 50 332 50q408 0 408 -326v-724h-64l-24 104q-197 -104 -382 -104q-365 0 -365 297zM516 520q-311 0 -311 -220q0 -210 260 -210q192 0 365 102v308q-167 20 -314 20z" />
    <glyph glyph-name="b" unicode="b" horiz-adv-x="1178" 
d="M265 123q161 -29 291 -29q410 0 410 459q0 397 -377 397q-144 0 -324 -54v-773zM160 1430h105v-430q189 50 325 50q478 0 478 -504q0 -546 -503 -546q-226 0 -405 43v1387z" />
    <glyph glyph-name="c" unicode="c" horiz-adv-x="1005" 
d="M920 30q-130 -30 -280 -30q-530 0 -530 545q0 505 530 505q150 0 280 -30v-90q-140 30 -270 30q-425 0 -425 -415q0 -455 425 -455q130 0 270 30v-90z" />
    <glyph glyph-name="d" unicode="d" horiz-adv-x="1190" 
d="M925 896q-152 54 -316 54q-387 0 -387 -397q0 -459 387 -459q164 0 316 39v763zM1030 63q-171 -63 -431 -63q-489 0 -489 546q0 504 498 504q156 0 317 -50v430h105v-1367z" />
    <glyph glyph-name="e" unicode="e" horiz-adv-x="1124" 
d="M583 1050q431 0 431 -477q0 -34 -2 -71h-797q0 -412 436 -412q179 0 318 50v-90q-139 -50 -318 -50q-541 0 -541 537q0 513 473 513zM215 596h698q-6 366 -330 366q-350 0 -368 -366z" />
    <glyph glyph-name="f" unicode="f" horiz-adv-x="696" 
d="M160 0v1101q0 381 422 381q129 0 234 -40v-90q-99 40 -235 40q-316 0 -316 -293v-49h395v-90h-395v-960h-105z" />
    <glyph glyph-name="g" unicode="g" horiz-adv-x="1187" 
d="M922 932q-145 24 -285 24q-425 0 -425 -423q0 -433 397 -433q144 0 313 54v778zM1027 0q0 -380 -463 -380q-194 0 -344 50v90q153 -50 346 -50q356 0 356 290v50q-178 -50 -314 -50q-498 0 -498 531q0 519 535 519q203 0 382 -43v-1007z" />
    <glyph glyph-name="h" unicode="h" 
d="M160 0v1430h105v-494q184 114 377 114q383 0 383 -391v-659h-105v702q0 254 -283 254q-189 0 -372 -133v-823h-105z" />
    <glyph glyph-name="i" unicode="i" horiz-adv-x="465" 
d="M295 1430v-120h-125v120h125zM285 1050v-1050h-105v1050h105z" />
    <glyph glyph-name="j" unicode="j" horiz-adv-x="465" 
d="M295 1430v-120h-125v120h125zM285 1050v-970q0 -318 -155 -448l-75 65q125 115 125 383v970h105z" />
    <glyph glyph-name="k" unicode="k" horiz-adv-x="1106" 
d="M150 0v1430h105v-472q183 92 403 92q372 0 372 -303q0 -230 -330 -314l356 -433h-154l-334 435v63q357 41 357 250q0 212 -290 212q-193 0 -380 -94v-866h-105z" />
    <glyph glyph-name="l" unicode="l" horiz-adv-x="465" 
d="M285 1430v-1430h-105v1430h105z" />
    <glyph glyph-name="m" unicode="m" horiz-adv-x="1795" 
d="M160 0v1050h75l11 -132q161 132 349 132q248 0 321 -144q181 144 367 144q352 0 352 -349v-701h-105v701q0 255 -248 255q-198 0 -327 -136v-820h-105v718q0 238 -256 238q-186 0 -329 -136v-820h-105z" />
    <glyph glyph-name="n" unicode="n" 
d="M160 0v1050h75l13 -134q201 134 394 134q383 0 383 -331v-719h-105v722q0 234 -283 234q-189 0 -372 -133v-823h-105z" />
    <glyph glyph-name="o" unicode="o" horiz-adv-x="1200" 
d="M600 80q385 0 385 449q0 441 -385 441t-385 -441q0 -449 385 -449zM110 525q0 535 490 535t490 -535q0 -534 -490 -534q-488 0 -490 534z" />
    <glyph glyph-name="p" unicode="p" horiz-adv-x="1177" 
d="M265 154q159 -54 293 -54q407 0 407 453q0 403 -405 403q-140 0 -295 -24v-778zM160 1007q179 43 402 43q505 0 505 -499q0 -551 -508 -551q-126 0 -294 50v-430h-105v1387z" />
    <glyph glyph-name="q" unicode="q" horiz-adv-x="1187" 
d="M922 932q-155 24 -295 24q-415 0 -415 -423q0 -433 397 -433q144 0 313 54v778zM1027 -380h-105v430q-178 -50 -314 -50q-498 0 -498 531q0 519 525 519q213 0 392 -43v-1387z" />
    <glyph glyph-name="r" unicode="r" horiz-adv-x="635" 
d="M160 0v1050h75l13 -174q158 174 352 174v-84q-188 0 -335 -183v-783h-105z" />
    <glyph glyph-name="s" unicode="s" horiz-adv-x="1030" 
d="M140 50v100q175 -60 344 -60q331 0 331 210q0 170 -245 170h-134q-330 0 -330 280q0 300 437 300q168 0 343 -50v-100q-175 60 -343 60q-332 0 -332 -210q0 -180 225 -180h134q350 0 350 -270q0 -300 -436 -300q-169 0 -344 50z" />
    <glyph glyph-name="t" unicode="t" horiz-adv-x="627" 
d="M156 1220h74l19 -170h315v-90h-306v-663q0 -207 152 -207h154v-90h-152q-256 0 -256 283v937z" />
    <glyph glyph-name="u" unicode="u" 
d="M1025 1050v-1050h-77l-12 134q-181 -134 -404 -134q-372 0 -372 391v659h105v-662q0 -294 272 -294q199 0 383 133v823h105z" />
    <glyph glyph-name="v" unicode="v" horiz-adv-x="1030" 
d="M10 1050h120l384 -959l386 959h120l-447 -1050h-122z" />
    <glyph glyph-name="w" unicode="w" horiz-adv-x="1539" 
d="M60 1050h107l226 -923l333 923h77l342 -903l231 903h103l-274 -1050h-109l-331 895l-326 -895h-113z" />
    <glyph glyph-name="x" unicode="x" horiz-adv-x="1010" 
d="M443 525l-408 525h125l345 -444l345 444h125l-407 -525l407 -525h-125l-345 444l-345 -444h-125z" />
    <glyph glyph-name="y" unicode="y" horiz-adv-x="1081" 
d="M35 1050h121l390 -948l384 948h116l-456 -1081q-116 -286 -348 -357l-31 84q182 66 278 288z" />
    <glyph glyph-name="z" unicode="z" horiz-adv-x="1020" 
d="M130 1050h780v-90l-667 -870h647v-90h-780v90l675 870h-655v90z" />
    <glyph glyph-name="braceleft" unicode="{" horiz-adv-x="590" 
d="M555 1430q-130 -176 -130 -478q0 -352 -190 -427q190 -75 190 -427q0 -302 130 -478h-105q-130 176 -130 478q0 382 -210 382v90q210 0 210 382q0 302 130 478h105z" />
    <glyph glyph-name="bar" unicode="|" horiz-adv-x="425" 
d="M265 1430v-1810h-105v1810h105z" />
    <glyph glyph-name="braceright" unicode="}" horiz-adv-x="590" 
d="M140 1430q130 -176 130 -478q0 -382 210 -382v-90q-210 0 -210 -382q0 -302 -130 -478h-105q130 176 130 478q0 352 190 427q-190 75 -190 427q0 302 -130 478h105z" />
    <glyph glyph-name="asciitilde" unicode="~" horiz-adv-x="970" 
d="M110 550q58 61 162 61q86 0 203 -41q117 -40 207 -40q109 0 178 60v-90q-58 -60 -162 -60q-86 0 -203 40q-117 41 -207 41q-109 0 -178 -61v90z" />
    <glyph glyph-name="Adieresis" unicode="&#xc4;" horiz-adv-x="1492" 
d="M147 0h-112l647 1430h125l650 -1430h-125l-212 480h-641l31 90h571l-343 778zM974 1790v-130h-135v130h135zM654 1790v-130h-135v130h135z" />
    <glyph glyph-name="Aring" unicode="&#xc5;" horiz-adv-x="1492" 
d="M748 1482q134 0 134 137q0 134 -134 134q-138 0 -138 -134q0 -137 138 -137zM147 0h-112l644 1424q-149 28 -149 193q0 200 218 200q214 0 214 -200q0 -168 -152 -194l647 -1423h-125l-212 480h-641l31 90h571l-343 778z" />
    <glyph glyph-name="Ccedilla" unicode="&#xc7;" horiz-adv-x="1405" 
d="M773 -7q-663 41 -663 742q0 705 750 705q205 0 400 -60v-90q-195 60 -380 60q-665 0 -665 -615q0 -655 665 -655q185 0 380 60v-90q-190 -59 -390 -60l-36 -67q224 0 224 -172q0 -173 -241 -173q-108 0 -216 50v88q108 -60 216 -60q148 0 148 95q0 94 -123 94h-153z" />
    <glyph glyph-name="Eacute" unicode="&#xc9;" horiz-adv-x="1248" 
d="M1099 1430v-90h-834v-570h800v-90h-800v-590h848v-90h-953v1430h939zM693 1810h159l-239 -239h-84z" />
    <glyph glyph-name="Ntilde" unicode="&#xd1;" horiz-adv-x="1505" 
d="M160 0v1430h135l955 -1252v1252h95v-1430h-85l-1005 1312v-1312h-95zM503 1764q60 46 130 46q52 0 110 -26t114 -26q75 0 146 46v-90q-60 -46 -130 -46q-52 0 -110 26t-114 26q-75 0 -146 -46v90z" />
    <glyph glyph-name="Odieresis" unicode="&#xd6;" horiz-adv-x="1645" 
d="M828 80q592 0 592 639q0 631 -592 631q-603 0 -603 -631q0 -639 603 -639zM110 713q0 727 718 727q707 0 707 -727q0 -723 -707 -723q-718 0 -718 723zM1050 1790v-130h-135v130h135zM730 1790v-130h-135v130h135z" />
    <glyph glyph-name="Udieresis" unicode="&#xdc;" horiz-adv-x="1470" 
d="M160 552v878h105v-878q0 -472 470 -472t470 472v878h105v-878q0 -562 -575 -562t-575 562zM963 1790v-130h-135v130h135zM643 1790v-130h-135v130h135z" />
    <glyph glyph-name="aacute" unicode="&#xe1;" horiz-adv-x="1095" 
d="M100 297q0 313 416 313q147 0 314 -20v129q0 241 -303 241q-162 0 -332 -50v90q170 50 332 50q408 0 408 -326v-724h-64l-24 104q-197 -104 -382 -104q-365 0 -365 297zM516 520q-311 0 -311 -220q0 -210 260 -210q192 0 365 102v308q-167 20 -314 20zM614 1430h159
l-239 -239h-84z" />
    <glyph glyph-name="agrave" unicode="&#xe0;" horiz-adv-x="1095" 
d="M100 297q0 313 416 313q147 0 314 -20v129q0 241 -303 241q-162 0 -332 -50v90q170 50 332 50q408 0 408 -326v-724h-64l-24 104q-197 -104 -382 -104q-365 0 -365 297zM516 520q-311 0 -311 -220q0 -210 260 -210q192 0 365 102v308q-167 20 -314 20zM685 1191h-84
l-239 239h159z" />
    <glyph glyph-name="acircumflex" unicode="&#xe2;" horiz-adv-x="1095" 
d="M100 297q0 313 416 313q147 0 314 -20v129q0 241 -303 241q-162 0 -332 -50v90q170 50 332 50q408 0 408 -326v-724h-64l-24 104q-197 -104 -382 -104q-365 0 -365 297zM516 520q-311 0 -311 -220q0 -210 260 -210q192 0 365 102v308q-167 20 -314 20zM503 1430h110
l195 -260h-100l-152 194l-148 -194h-100z" />
    <glyph glyph-name="adieresis" unicode="&#xe4;" horiz-adv-x="1095" 
d="M100 297q0 313 416 313q147 0 314 -20v129q0 241 -303 241q-162 0 -332 -50v90q170 50 332 50q408 0 408 -326v-724h-64l-24 104q-197 -104 -382 -104q-365 0 -365 297zM516 520q-311 0 -311 -220q0 -210 260 -210q192 0 365 102v308q-167 20 -314 20zM795 1410v-130
h-135v130h135zM475 1410v-130h-135v130h135z" />
    <glyph glyph-name="atilde" unicode="&#xe3;" horiz-adv-x="1095" 
d="M100 297q0 313 416 313q147 0 314 -20v129q0 241 -303 241q-162 0 -332 -50v90q170 50 332 50q408 0 408 -326v-724h-64l-24 104q-197 -104 -382 -104q-365 0 -365 297zM516 520q-311 0 -311 -220q0 -210 260 -210q192 0 365 102v308q-167 20 -314 20zM308 1384
q60 46 130 46q52 0 110 -26t114 -26q75 0 146 46v-90q-60 -46 -130 -46q-52 0 -110 26t-114 26q-75 0 -146 -46v90z" />
    <glyph glyph-name="aring" unicode="&#xe5;" horiz-adv-x="1095" 
d="M100 297q0 313 416 313q147 0 314 -20v129q0 241 -303 241q-162 0 -332 -50v90q170 50 332 50q408 0 408 -326v-724h-64l-24 104q-197 -104 -382 -104q-365 0 -365 297zM516 520q-311 0 -311 -220q0 -210 260 -210q192 0 365 102v308q-167 20 -314 20zM560 1226
q134 0 134 137q0 134 -134 134q-138 0 -138 -134q0 -137 138 -137zM342 1361q0 200 218 200q214 0 214 -200q0 -199 -214 -199q-218 0 -218 199z" />
    <glyph glyph-name="ccedilla" unicode="&#xe7;" horiz-adv-x="1005" 
d="M569 3q-459 35 -459 542q0 505 530 505q150 0 280 -30v-90q-140 30 -270 30q-425 0 -425 -415q0 -455 425 -455q130 0 270 30v-90q-119 -27 -255 -30l-41 -77q224 0 224 -172q0 -173 -241 -173q-108 0 -216 50v88q108 -60 216 -60q148 0 148 95q0 94 -123 94h-153z" />
    <glyph glyph-name="eacute" unicode="&#xe9;" horiz-adv-x="1146" 
d="M583 1050q431 0 431 -477q0 -34 -2 -71h-797q0 -412 436 -412q179 0 318 50v-90q-139 -50 -318 -50q-541 0 -541 537q0 513 473 513zM215 596h698q-6 366 -330 366q-350 0 -368 -366zM618 1430h159l-239 -239h-84z" />
    <glyph glyph-name="egrave" unicode="&#xe8;" horiz-adv-x="1146" 
d="M583 1050q431 0 431 -477q0 -34 -2 -71h-797q0 -412 436 -412q179 0 318 50v-90q-139 -50 -318 -50q-541 0 -541 537q0 513 473 513zM215 596h698q-6 366 -330 366q-350 0 -368 -366zM690 1191h-84l-239 239h159z" />
    <glyph glyph-name="ecircumflex" unicode="&#xea;" horiz-adv-x="1146" 
d="M583 1050q431 0 431 -477q0 -34 -2 -71h-797q0 -412 436 -412q179 0 318 50v-90q-139 -50 -318 -50q-541 0 -541 537q0 513 473 513zM215 596h698q-6 366 -330 366q-350 0 -368 -366zM527 1430h110l195 -260h-100l-152 194l-148 -194h-100z" />
    <glyph glyph-name="edieresis" unicode="&#xeb;" horiz-adv-x="1146" 
d="M583 1050q431 0 431 -477q0 -34 -2 -71h-797q0 -412 436 -412q179 0 318 50v-90q-139 -50 -318 -50q-541 0 -541 537q0 513 473 513zM215 596h698q-6 366 -330 366q-350 0 -368 -366zM810 1410v-130h-135v130h135zM490 1410v-130h-135v130h135z" />
    <glyph glyph-name="iacute" unicode="&#xed;" horiz-adv-x="445" 
d="M275 1050v-1050h-105v1050h105zM279 1430h159l-239 -239h-84z" />
    <glyph glyph-name="igrave" unicode="&#xec;" horiz-adv-x="445" 
d="M275 1050v-1050h-105v1050h105zM330 1191h-84l-239 239h159z" />
    <glyph glyph-name="icircumflex" unicode="&#xee;" horiz-adv-x="445" 
d="M276 1050v-1050h-105v1050h105zM168 1430h110l195 -260h-100l-152 194l-148 -194h-100z" />
    <glyph glyph-name="idieresis" unicode="&#xef;" horiz-adv-x="445" 
d="M285 1050v-1050h-105v1050h105zM460 1410v-130h-135v130h135zM140 1410v-130h-135v130h135z" />
    <glyph glyph-name="ntilde" unicode="&#xf1;" 
d="M160 0v1050h75l13 -134q201 134 394 134q383 0 383 -331v-719h-105v722q0 234 -283 234q-189 0 -372 -133v-823h-105zM343 1384q60 46 130 46q52 0 110 -26t114 -26q75 0 146 46v-90q-60 -46 -130 -46q-52 0 -110 26t-114 26q-75 0 -146 -46v90z" />
    <glyph glyph-name="oacute" unicode="&#xf3;" horiz-adv-x="1200" 
d="M600 80q385 0 385 449q0 441 -385 441t-385 -441q0 -449 385 -449zM110 525q0 535 490 535t490 -535q0 -534 -490 -534q-488 0 -490 534zM656 1430h159l-239 -239h-84z" />
    <glyph glyph-name="ograve" unicode="&#xf2;" horiz-adv-x="1200" 
d="M600 80q385 0 385 449q0 441 -385 441t-385 -441q0 -449 385 -449zM110 525q0 535 490 535t490 -535q0 -534 -490 -534q-488 0 -490 534zM708 1191h-84l-239 239h159z" />
    <glyph glyph-name="ocircumflex" unicode="&#xf4;" horiz-adv-x="1200" 
d="M600 80q385 0 385 449q0 441 -385 441t-385 -441q0 -449 385 -449zM110 525q0 535 490 535t490 -535q0 -534 -490 -534q-488 0 -490 534zM545 1430h110l195 -260h-100l-152 194l-148 -194h-100z" />
    <glyph glyph-name="odieresis" unicode="&#xf6;" horiz-adv-x="1200" 
d="M600 80q385 0 385 449q0 441 -385 441t-385 -441q0 -449 385 -449zM110 525q0 535 490 535t490 -535q0 -534 -490 -534q-488 0 -490 534zM828 1410v-130h-135v130h135zM508 1410v-130h-135v130h135z" />
    <glyph glyph-name="otilde" unicode="&#xf5;" horiz-adv-x="1200" 
d="M600 80q385 0 385 449q0 441 -385 441t-385 -441q0 -449 385 -449zM110 525q0 535 490 535t490 -535q0 -534 -490 -534q-488 0 -490 534zM350 1384q60 46 130 46q52 0 110 -26t114 -26q75 0 146 46v-90q-60 -46 -130 -46q-52 0 -110 26t-114 26q-75 0 -146 -46v90z" />
    <glyph glyph-name="uacute" unicode="&#xfa;" 
d="M1025 1050v-1050h-77l-12 134q-181 -134 -404 -134q-372 0 -372 391v659h105v-662q0 -294 272 -294q199 0 383 133v823h105zM629 1430h159l-239 -239h-84z" />
    <glyph glyph-name="ugrave" unicode="&#xf9;" 
d="M1025 1050v-1050h-77l-12 134q-181 -134 -404 -134q-372 0 -372 391v659h105v-662q0 -294 272 -294q199 0 383 133v823h105zM680 1191h-84l-239 239h159z" />
    <glyph glyph-name="ucircumflex" unicode="&#xfb;" 
d="M1025 1050v-1050h-77l-12 134q-181 -134 -404 -134q-372 0 -372 391v659h105v-662q0 -294 272 -294q199 0 383 133v823h105zM518 1430h110l195 -260h-100l-152 194l-148 -194h-100z" />
    <glyph glyph-name="udieresis" unicode="&#xfc;" 
d="M1025 1050v-1050h-77l-12 134q-181 -134 -404 -134q-372 0 -372 391v659h105v-662q0 -294 272 -294q199 0 383 133v823h105zM800 1410v-130h-135v130h135zM480 1410v-130h-135v130h135z" />
    <glyph glyph-name="dagger" unicode="&#x2020;" horiz-adv-x="1065" 
d="M585 1430v-380h420v-90h-420v-1340h-105v1340h-420v90h420v380h105z" />
    <glyph glyph-name="degree" unicode="&#xb0;" horiz-adv-x="772" 
d="M388 985q184 0 184 187q0 184 -184 184q-188 0 -188 -184q0 -187 188 -187zM110 1170q0 260 278 260q274 0 274 -260q0 -259 -274 -259q-278 0 -278 259z" />
    <glyph glyph-name="cent" unicode="&#xa2;" horiz-adv-x="1005" 
d="M560 1237v193h115v-190q130 -4 245 -30v-90q-140 30 -270 30q-425 0 -425 -415q0 -455 425 -455q130 0 270 30v-90q-115 -26 -245 -30v-190h-115v193q-450 40 -450 542q0 465 450 502z" />
    <glyph glyph-name="sterling" unicode="&#xa3;" horiz-adv-x="1237" 
d="M110 62q186 75 186 351q0 117 -77 291t-77 323q0 413 538 413q290 0 447 -100v-120q-158 130 -444 130q-424 0 -424 -321q0 -144 55 -259h446v-90h-414q59 -164 59 -264q0 -137 -64 -298q41 4 85 4q137 0 297 -43q61 -17 121 -17q145 0 283 98v-110q-120 -84 -284 -84
q-94 0 -201 28q-129 32 -246 32q-153 0 -286 -56v92z" />
    <glyph glyph-name="section" unicode="&#xa7;" horiz-adv-x="1070" 
d="M160 40v100q175 -60 364 -60q331 0 331 200q0 170 -275 170h-110q-360 0 -360 270q0 148 162 206q-162 50 -162 224q0 290 457 290q168 0 343 -50v-100q-175 60 -343 60q-352 0 -352 -200q0 -170 255 -170h110q380 0 380 -267q0 -160 -165 -214q165 -62 165 -219
q0 -290 -436 -290q-189 0 -364 50zM480 538h110q265 0 265 166q0 187 -265 187h-110q-265 0 -265 -174q0 -179 265 -179z" />
    <glyph glyph-name="bullet" unicode="&#x2022;" horiz-adv-x="610" 
d="M110 725q0 195 195 195t195 -195t-195 -195t-195 195z" />
    <glyph glyph-name="paragraph" unicode="&#xb6;" horiz-adv-x="973" 
d="M453 -434v972q-443 0 -443 448q0 444 443 444h510v-90h-150v-1774h-100v1774h-160v-1774h-100z" />
    <glyph glyph-name="germandbls" unicode="&#xdf;" horiz-adv-x="1166" 
d="M160 0v959q0 468 454 468q400 0 400 -377v-55q-324 -103 -324 -258q0 -121 195.5 -192.5t195.5 -262.5q0 -282 -374 -282h-202v90h204q257 0 257 192q0 141 -190.5 207.5t-190.5 244.5q0 208 318 316q0 287 -296 287q-342 0 -342 -381v-956h-105z" />
    <glyph glyph-name="registered" unicode="&#xae;" horiz-adv-x="1183" 
d="M414 756v536h229q153 0 153 -128q0 -105 -150 -155l184 -253h-91l-171 241v45q154 25 154 119q0 74 -86 74h-153v-479h-69zM590 664q360 0 360 361q0 369 -360 369q-357 0 -357 -369q0 -361 357 -361zM160 1023q0 427 430 427q433 0 433 -427q0 -415 -433 -415
q-418 0 -430 415z" />
    <glyph glyph-name="copyright" unicode="&#xa9;" horiz-adv-x="1785" 
d="M878 80q652 0 652 639q0 631 -632 631q-643 0 -643 -631q0 -639 623 -639zM150 723q0 717 748 717q737 0 737 -717q0 -733 -737 -733q-748 0 -748 733zM1183 336q-125 -51 -290 -51q-416 0 -416 443q0 416 416 416q165 0 290 -51v-98q-125 58 -276 58q-325 0 -325 -325
q0 -352 325 -352q151 0 276 58v-98z" />
    <glyph glyph-name="trademark" unicode="&#x2122;" horiz-adv-x="1626" 
d="M671 1430v-71h-212v-602h-87v602h-212v71h511zM760 757v673h110l248 -561l242 561h106v-673h-78v543l-239 -543h-69l-243 543v-543h-77z" />
    <glyph glyph-name="acute" unicode="&#xb4;" horiz-adv-x="523" 
d="M264 1430h159l-239 -239h-84z" />
    <glyph glyph-name="dieresis" unicode="&#xa8;" horiz-adv-x="635" 
d="M545 1410v-130h-135v130h135zM225 1410v-130h-135v130h135z" />
    <glyph glyph-name="AE" unicode="&#xc6;" horiz-adv-x="1895" 
d="M35 0l607 1430h1098v-90h-918l240 -570h643v-90h-604l256 -590h403v-90h-498l-557 1353l-303 -783h501l28 -90h-580l-194 -480h-122z" />
    <glyph glyph-name="Oslash" unicode="&#xd8;" horiz-adv-x="1645" 
d="M470 164q139 -84 358 -84q592 0 592 639q0 329 -161 487zM383 232l788 1040q-135 78 -343 78q-603 0 -603 -631q0 -328 158 -487zM407 82l-62 -82h-137l109 145q-207 179 -207 568q0 727 718 727q245 0 405 -87l58 77h138l-106 -139q212 -180 212 -578q0 -723 -707 -723
q-256 0 -421 92z" />
    <glyph glyph-name="plusminus" unicode="&#xb1;" horiz-adv-x="970" 
d="M430 720v330h110v-330h320v-90h-320v-330h-110v330h-320v90h320zM860 90v-90h-750v90h750z" />
    <glyph glyph-name="yen" unicode="&#xa5;" horiz-adv-x="1270" 
d="M60 1430h125l442 -661l448 661h135l-493 -700h373v-90h-416v-171h416v-90h-416v-379h-105v379h-389v90h389v171h-389v90h347z" />
    <glyph glyph-name="mu" unicode="&#xb5;" horiz-adv-x="1205" 
d="M1045 1050v-1050h-77l-12 134q-241 -134 -414 -134q-184 0 -287 120v-500h-95v1430h95v-672q0 -284 322 -284q159 0 363 133v823h105z" />
    <glyph glyph-name="mu" unicode="&#x3bc;" horiz-adv-x="1205" 
d="M1045 1050v-1050h-77l-12 134q-241 -134 -414 -134q-184 0 -287 120v-500h-95v1430h95v-672q0 -284 322 -284q159 0 363 133v823h105z" />
    <glyph glyph-name="ordfeminine" unicode="&#xaa;" horiz-adv-x="632" 
d="M100 1069q0 161 213 161q79 0 137 -10v50q0 86 -142 86q-80 0 -166 -26v76q86 24 166 24q224 0 224 -168v-356h-46l-28 36q-68 -36 -160 -36q-198 0 -198 163zM313 1156q-131 0 -131 -86q0 -90 116 -90q96 0 152 42v124q-55 10 -137 10z" />
    <glyph glyph-name="ordmasculine" unicode="&#xba;" horiz-adv-x="700" 
d="M350 980q168 0 168 190q0 186 -168 186q-167 0 -167 -186q0 -190 167 -190zM100 1168q0 262 250 262t250 -262t-250 -262q-248 0 -250 262z" />
    <glyph glyph-name="ae" unicode="&#xe6;" horiz-adv-x="1837" 
d="M516 530q-311 0 -311 -230q0 -210 260 -210q192 0 385 102v318q-187 20 -334 20zM948 596h678q-6 366 -330 366q-330 0 -348 -366zM945 155q-245 -155 -480 -155q-365 0 -365 297q0 323 416 323q147 0 334 -20v119q0 241 -323 241q-162 0 -332 -50v90q170 50 332 50
q326 0 392 -183q114 183 377 183q431 0 431 -477q0 -34 -2 -71h-777q0 -412 406 -412q179 0 318 50v-90q-139 -50 -318 -50q-274 0 -409 155z" />
    <glyph glyph-name="oslash" unicode="&#xf8;" horiz-adv-x="1203" 
d="M390 128q84 -48 210 -48q385 0 385 449q0 184 -67 291zM306 198l537 704q-92 68 -243 68q-385 0 -385 -441q0 -218 91 -331zM330 50l-38 -50h-137l88 115q-132 133 -133 410q0 535 490 535q187 0 303 -78l52 68h138l-109 -143q106 -133 106 -382q0 -534 -490 -534
q-162 0 -270 59z" />
    <glyph glyph-name="questiondown" unicode="&#xbf;" horiz-adv-x="1135" 
d="M730 945v105h105v-105h-105zM1025 -330q-210 -50 -400 -50q-515 0 -515 390t497 390h123v280h105v-370h-225q-395 0 -395 -300t410 -300q190 0 400 50v-90z" />
    <glyph glyph-name="exclamdown" unicode="&#xa1;" horiz-adv-x="425" 
d="M160 -380v1060h105v-1060h-105zM160 945v105h105v-105h-105z" />
    <glyph glyph-name="logicalnot" unicode="&#xac;" horiz-adv-x="1105" 
d="M110 1050h885v-340h-90v250h-795v90z" />
    <glyph glyph-name="florin" unicode="&#x192;" horiz-adv-x="987" 
d="M927 1340q-24 5 -46 5q-173 0 -226 -275l-34 -150h210l-20 -90h-210l-164 -850q-73 -364 -325 -364q-25 0 -52 4v90q24 -5 46 -5q173 0 226 275l164 850h-180l20 90h180l34 150q73 364 325 364q25 0 52 -4v-90z" />
    <glyph glyph-name="guillemotleft" unicode="&#xab;" horiz-adv-x="869" 
d="M429 525l258 375h122l-258 -375l258 -375h-122zM110 525l258 375h122l-258 -375l258 -375h-122z" />
    <glyph glyph-name="guillemotright" unicode="&#xbb;" horiz-adv-x="869" 
d="M182 150h-122l258 375l-258 375h122l258 -375zM501 150h-122l258 375l-258 375h122l258 -375z" />
    <glyph glyph-name="ellipsis" unicode="&#x2026;" horiz-adv-x="1055" 
d="M595 125v-125h-135v125h135zM245 125v-125h-135v125h135zM945 125v-125h-135v125h135z" />
    <glyph glyph-name="nonbreakingspace" unicode="&#xa0;" horiz-adv-x="518" 
 />
    <glyph glyph-name="Agrave" unicode="&#xc0;" horiz-adv-x="1492" 
d="M147 0h-112l647 1430h125l650 -1430h-125l-212 480h-641l31 90h571l-343 778zM854 1571h-84l-239 239h159z" />
    <glyph glyph-name="Atilde" unicode="&#xc3;" horiz-adv-x="1492" 
d="M147 0h-112l647 1430h125l650 -1430h-125l-212 480h-641l31 90h571l-343 778zM496 1764q60 46 130 46q52 0 110 -26t114 -26q75 0 146 46v-90q-60 -46 -130 -46q-52 0 -110 26t-114 26q-75 0 -146 -46v90z" />
    <glyph glyph-name="Otilde" unicode="&#xd5;" horiz-adv-x="1645" 
d="M828 80q592 0 592 639q0 631 -592 631q-603 0 -603 -631q0 -639 603 -639zM110 713q0 727 718 727q707 0 707 -727q0 -723 -707 -723q-718 0 -718 723zM573 1764q60 46 130 46q52 0 110 -26t114 -26q75 0 146 46v-90q-60 -46 -130 -46q-52 0 -110 26t-114 26
q-75 0 -146 -46v90z" />
    <glyph glyph-name="OE" unicode="&#x152;" horiz-adv-x="2235" 
d="M828 90q592 0 592 629q0 621 -592 621q-603 0 -603 -621q0 -629 603 -629zM110 713q0 717 718 717h1257v-90h-855q275 -137 305 -570h515v-90h-515q-30 -447 -317 -590h882v-90h-1272q-718 0 -718 713z" />
    <glyph glyph-name="oe" unicode="&#x153;" horiz-adv-x="2025" 
d="M600 90q385 0 385 439q0 431 -385 431t-385 -431q0 -439 385 -439zM1095 596h698q-6 366 -330 366q-350 0 -368 -366zM1044 253q-104 -252 -444 -252q-488 0 -490 524q0 525 490 525q330 0 438 -238q103 238 425 238q431 0 431 -477q0 -34 -2 -71h-797q0 -412 446 -412
q179 0 318 30v-90q-139 -30 -318 -30q-378 0 -497 253z" />
    <glyph glyph-name="endash" unicode="&#x2013;" horiz-adv-x="1220" 
d="M1110 570v-90h-1000v90h1000z" />
    <glyph glyph-name="emdash" unicode="&#x2014;" horiz-adv-x="1720" 
d="M1610 570v-90h-1500v90h1500z" />
    <glyph glyph-name="quotedblleft" unicode="&#x201c;" horiz-adv-x="650" 
d="M625 1430l-150 -435h-115l150 435h115zM325 1430l-150 -435h-115l150 435h115z" />
    <glyph glyph-name="quotedblright" unicode="&#x201d;" horiz-adv-x="650" 
d="M625 1430l-150 -435h-115l150 435h115zM325 1430l-150 -435h-115l150 435h115z" />
    <glyph glyph-name="quoteleft" unicode="&#x2018;" horiz-adv-x="350" 
d="M325 1430l-150 -435h-115l150 435h115z" />
    <glyph glyph-name="quoteright" unicode="&#x2019;" horiz-adv-x="375" 
d="M325 1430l-150 -435h-115l150 435h115z" />
    <glyph glyph-name="divide" unicode="&#xf7;" horiz-adv-x="1005" 
d="M895 570v-90h-785v90h785zM575 280v-130h-145v130h145zM575 900v-130h-145v130h145z" />
    <glyph glyph-name="ydieresis" unicode="&#xff;" horiz-adv-x="1081" 
d="M35 1050h121l390 -948l384 948h116l-456 -1081q-116 -286 -348 -357l-31 84q182 66 278 288zM768 1410v-130h-135v130h135zM448 1410v-130h-135v130h135z" />
    <glyph glyph-name="Ydieresis" unicode="&#x178;" horiz-adv-x="1250" 
d="M35 1430h125l463 -830l477 830h115l-536 -930v-500h-105v500zM853 1790v-130h-135v130h135zM533 1790v-130h-135v130h135z" />
    <glyph glyph-name="currency" unicode="&#xa4;" horiz-adv-x="1119" 
d="M246 786l-136 120l69 72l125 -141q108 74 262 74t250 -77l124 138l69 -66l-142 -126q82 -107 82 -245q0 -169 -78 -262l138 -110l-70 -72l-118 133q-118 -80 -263 -80q-144 0 -263 80l-116 -133l-69 62l136 120q-77 103 -77 252q0 157 77 261zM252 529q0 -306 305 -306
t305 306q0 304 -305 304t-305 -304z" />
    <glyph glyph-name="guilsinglleft" unicode="&#x2039;" horiz-adv-x="550" 
d="M110 525l258 375h122l-258 -375l258 -375h-122z" />
    <glyph glyph-name="guilsinglright" unicode="&#x203a;" horiz-adv-x="550" 
d="M182 150h-122l258 375l-258 375h122l258 -375z" />
    <glyph glyph-name="daggerdbl" unicode="&#x2021;" horiz-adv-x="1065" 
d="M585 1430v-380h420v-90h-420v-870h420v-90h-420v-380h-105v380h-420v90h420v870h-420v90h420v380h105z" />
    <glyph glyph-name="periodcentered" unicode="&#xb7;" horiz-adv-x="430" 
d="M120 525q0 95 95 95t95 -95t-95 -95t-95 95z" />
    <glyph glyph-name="periodcentered" unicode="&#x2219;" horiz-adv-x="430" 
d="M120 525q0 95 95 95t95 -95t-95 -95t-95 95z" />
    <glyph glyph-name="quotesinglbase" unicode="&#x201a;" horiz-adv-x="350" 
d="M290 185l-150 -435h-115l150 435h115z" />
    <glyph glyph-name="quotedblbase" unicode="&#x201e;" horiz-adv-x="650" 
d="M590 185l-150 -435h-115l150 435h115zM290 185l-150 -435h-115l150 435h115z" />
    <glyph glyph-name="perthousand" unicode="&#x2030;" horiz-adv-x="2047" 
d="M1663 74q174 0 174 177q0 174 -174 174q-178 0 -178 -174q0 -177 178 -177zM1385 249q0 260 278 260q274 0 274 -260q0 -259 -274 -259q-278 0 -278 259zM235 0h-125l1017 1430h125zM388 1005q174 0 174 177q0 174 -174 174q-178 0 -178 -174q0 -177 178 -177zM110 1180
q0 260 278 260q274 0 274 -260q0 -259 -274 -259q-278 0 -278 259zM978 74q174 0 174 177q0 174 -174 174q-178 0 -178 -174q0 -177 178 -177zM700 249q0 260 278 260q274 0 274 -260q0 -259 -274 -259q-278 0 -278 259z" />
    <glyph glyph-name="Acircumflex" unicode="&#xc2;" horiz-adv-x="1492" 
d="M147 0h-112l647 1430h125l650 -1430h-125l-212 480h-641l31 90h571l-343 778zM691 1810h110l195 -260h-100l-152 194l-148 -194h-100z" />
    <glyph glyph-name="Ecircumflex" unicode="&#xca;" horiz-adv-x="1248" 
d="M1099 1430v-90h-834v-570h800v-90h-800v-590h848v-90h-953v1430h939zM582 1810h110l195 -260h-100l-152 194l-148 -194h-100z" />
    <glyph glyph-name="Aacute" unicode="&#xc1;" horiz-adv-x="1492" 
d="M147 0h-112l647 1430h125l650 -1430h-125l-212 480h-641l31 90h571l-343 778zM802 1810h159l-239 -239h-84z" />
    <glyph glyph-name="Edieresis" unicode="&#xcb;" horiz-adv-x="1248" 
d="M1099 1430v-90h-834v-570h800v-90h-800v-590h848v-90h-953v1430h939zM864 1790v-130h-135v130h135zM544 1790v-130h-135v130h135z" />
    <glyph glyph-name="Egrave" unicode="&#xc8;" horiz-adv-x="1248" 
d="M1099 1430v-90h-834v-570h800v-90h-800v-590h848v-90h-953v1430h939zM744 1571h-84l-239 239h159z" />
    <glyph glyph-name="Iacute" unicode="&#xcd;" horiz-adv-x="525" 
d="M315 1430v-1430h-105v1430h105zM319 1810h159l-239 -239h-84z" />
    <glyph glyph-name="Icircumflex" unicode="&#xce;" horiz-adv-x="525" 
d="M316 1430v-1430h-105v1430h105zM208 1810h110l195 -260h-100l-152 194l-148 -194h-100z" />
    <glyph glyph-name="Idieresis" unicode="&#xcf;" horiz-adv-x="525" 
d="M325 1430v-1430h-105v1430h105zM500 1790v-130h-135v130h135zM180 1790v-130h-135v130h135z" />
    <glyph glyph-name="Igrave" unicode="&#xcc;" horiz-adv-x="525" 
d="M315 1430v-1430h-105v1430h105zM370 1571h-84l-239 239h159z" />
    <glyph glyph-name="Oacute" unicode="&#xd3;" horiz-adv-x="1645" 
d="M828 80q592 0 592 639q0 631 -592 631q-603 0 -603 -631q0 -639 603 -639zM110 713q0 727 718 727q707 0 707 -727q0 -723 -707 -723q-718 0 -718 723zM879 1810h159l-239 -239h-84z" />
    <glyph glyph-name="Ocircumflex" unicode="&#xd4;" horiz-adv-x="1645" 
d="M828 80q592 0 592 639q0 631 -592 631q-603 0 -603 -631q0 -639 603 -639zM110 713q0 727 718 727q707 0 707 -727q0 -723 -707 -723q-718 0 -718 723zM768 1810h110l195 -260h-100l-152 194l-148 -194h-100z" />
    <glyph glyph-name="Ograve" unicode="&#xd2;" horiz-adv-x="1645" 
d="M828 80q592 0 592 639q0 631 -592 631q-603 0 -603 -631q0 -639 603 -639zM110 713q0 727 718 727q707 0 707 -727q0 -723 -707 -723q-718 0 -718 723zM930 1571h-84l-239 239h159z" />
    <glyph glyph-name="Uacute" unicode="&#xda;" horiz-adv-x="1470" 
d="M160 552v878h105v-878q0 -472 470 -472t470 472v878h105v-878q0 -562 -575 -562t-575 562zM791 1810h159l-239 -239h-84z" />
    <glyph glyph-name="Ucircumflex" unicode="&#xdb;" horiz-adv-x="1470" 
d="M160 552v878h105v-878q0 -472 470 -472t470 472v878h105v-878q0 -562 -575 -562t-575 562zM680 1810h110l195 -260h-100l-152 194l-148 -194h-100z" />
    <glyph glyph-name="Ugrave" unicode="&#xd9;" horiz-adv-x="1470" 
d="M160 552v878h105v-878q0 -472 470 -472t470 472v878h105v-878q0 -562 -575 -562t-575 562zM843 1571h-84l-239 239h159z" />
    <glyph glyph-name="circumflex" unicode="&#x2c6;" horiz-adv-x="700" 
d="M295 1430h110l195 -260h-100l-152 194l-148 -194h-100z" />
    <glyph glyph-name="tilde" unicode="&#x2dc;" horiz-adv-x="700" 
d="M100 1384q60 46 130 46q52 0 110 -26t114 -26q75 0 146 46v-90q-60 -46 -130 -46q-52 0 -110 26t-114 26q-75 0 -146 -46v90z" />
    <glyph glyph-name="macron" unicode="&#xaf;" horiz-adv-x="700" 
d="M600 1430v-90h-500v90h500z" />
    <glyph glyph-name="macron" unicode="&#x2c9;" horiz-adv-x="700" 
d="M600 1430v-90h-500v90h500z" />
    <glyph glyph-name="cedilla" unicode="&#xb8;" horiz-adv-x="657" 
d="M100 -284q108 -60 216 -60q148 0 148 95q0 94 -123 94h-153l131 230h95l-81 -152q224 0 224 -172q0 -173 -241 -173q-108 0 -216 50v88z" />
    <glyph glyph-name="commaccent" unicode="&#x326;" horiz-adv-x="305" 
d="M280 -100l-150 -280h-105l150 280h105z" />
    <glyph glyph-name="Scaron" unicode="&#x160;" horiz-adv-x="1310" 
d="M150 50v110q225 -80 496 -80q449 0 449 340q0 250 -292 250h-294q-399 0 -399 360q0 410 585 410q240 0 465 -60v-100q-225 70 -465 70q-480 0 -480 -320q0 -260 294 -260h294q397 0 397 -350q0 -430 -554 -430q-271 0 -496 60zM405 1810h100l148 -194l152 194h100
l-195 -260h-110z" />
    <glyph glyph-name="scaron" unicode="&#x161;" horiz-adv-x="1030" 
d="M144 50v100q175 -60 344 -60q331 0 331 210q0 170 -245 170h-134q-330 0 -330 280q0 300 437 300q168 0 343 -50v-100q-175 60 -343 60q-332 0 -332 -210q0 -180 225 -180h134q350 0 350 -270q0 -300 -436 -300q-169 0 -344 50zM269 1430h100l148 -194l152 194h100
l-195 -260h-110z" />
    <glyph glyph-name="brokenbar" unicode="&#xa6;" horiz-adv-x="425" 
d="M265 350v-730h-105v730h105zM264 1430v-730h-104v730h104z" />
    <glyph glyph-name="Eth" unicode="&#xd0;" horiz-adv-x="1470" 
d="M265 770h445v-90h-445v-590h395q595 0 595 664q0 586 -595 586h-395v-570zM160 680h-200v90h200v660h510q700 0 700 -676q0 -754 -710 -754h-500v680z" />
    <glyph glyph-name="eth" unicode="&#xf0;" horiz-adv-x="1170" 
d="M965 586q0 116 -18 254q-120 130 -364 130q-382 0 -382 -430q0 -460 383 -460q381 0 381 506zM848 1278q222 -206 222 -688q0 -600 -487 -600q-483 0 -483 550q0 510 474 510q227 0 356 -100q-57 183 -178 280l-242 -119v89l164 81q-117 59 -278 59h-216v90h218
q229 0 380 -98l199 98v-89z" />
    <glyph glyph-name="Yacute" unicode="&#xdd;" horiz-adv-x="1250" 
d="M35 1430h125l463 -830l477 830h115l-536 -930v-500h-105v500zM681 1810h159l-239 -239h-84z" />
    <glyph glyph-name="yacute" unicode="&#xfd;" horiz-adv-x="1081" 
d="M35 1050h121l390 -948l384 948h116l-456 -1081q-116 -286 -348 -357l-31 84q182 66 278 288zM597 1430h159l-239 -239h-84z" />
    <glyph glyph-name="Thorn" unicode="&#xde;" horiz-adv-x="1263" 
d="M160 0v1430h105v-308h505q408 0 408 -343q0 -387 -569 -479l-28 86q480 85 480 385q0 258 -308 258h-488v-1029h-105z" />
    <glyph glyph-name="thorn" unicode="&#xfe;" horiz-adv-x="1177" 
d="M265 154q159 -54 293 -54q407 0 407 453q0 403 -405 403q-140 0 -295 -24v-778zM265 1028q137 22 297 22q505 0 505 -499q0 -551 -508 -551q-126 0 -294 50v-430h-105v1810h105v-402z" />
    <glyph glyph-name="minus" unicode="&#xad;" horiz-adv-x="970" 
d="M860 570v-90h-750v90h750z" />
    <glyph glyph-name="minus" unicode="&#x2212;" horiz-adv-x="970" 
d="M860 570v-90h-750v90h750z" />
    <glyph glyph-name="multiply" unicode="&#xd7;" horiz-adv-x="821" 
d="M343 525l-233 233l71 71l233 -233l226 226l64 -64l-226 -226l233 -233l-71 -71l-233 233l-233 -233l-64 64z" />
    <glyph glyph-name="onesuperior" unicode="&#xb9;" horiz-adv-x="348" 
d="M136 710v601h-76v55l178 60v-716h-102z" />
    <glyph glyph-name="twosuperior" unicode="&#xb2;" horiz-adv-x="610" 
d="M60 710v95q387 253 387 405q0 125 -160 125q-110 0 -207 -55v100q97 50 207 50q263 0 263 -220q0 -175 -337 -405h337v-95h-490z" />
    <glyph glyph-name="threesuperior" unicode="&#xb3;" horiz-adv-x="598" 
d="M60 1400q100 30 200 30q278 0 278 -204q0 -108 -94 -153q94 -43 94 -153q0 -214 -278 -214q-100 0 -200 30v100q100 -36 200 -36q176 0 176 120q0 106 -136 106h-164v94h162q138 0 138 106q0 110 -176 110q-100 0 -200 -36v100z" />
    <glyph glyph-name="onehalf" unicode="&#xbd;" horiz-adv-x="1462" 
d="M235 0h-125l945 1430h125zM862 0v95q388 253 388 405q0 125 -160 125q-110 0 -208 -55v100q98 50 208 50q262 0 262 -220q0 -175 -338 -405h338v-95h-490zM239 710v601h-76v55l178 60v-716h-102z" />
    <glyph glyph-name="onequarter" unicode="&#xbc;" horiz-adv-x="1469" 
d="M235 0h-125l945 1430h125zM882 690q100 30 200 30q277 0 277 -204q0 -108 -94 -153q94 -43 94 -153q0 -214 -277 -214q-100 0 -200 30v100q100 -36 200 -36q174 0 174 120q0 106 -136 106h-164v94h163q137 0 137 106q0 110 -174 110q-100 0 -200 -36v100zM239 710v601
h-76v55l178 60v-716h-102z" />
    <glyph glyph-name="threequarters" unicode="&#xbe;" horiz-adv-x="1510" 
d="M326 0h-125l945 1430h125zM1276 0h-102v150h-362v94l238 470h102l-233 -470h255v304h102v-304l74 -38v-56h-74v-150zM110 1400q100 30 200 30q277 0 277 -204q0 -108 -94 -153q94 -43 94 -153q0 -214 -277 -214q-100 0 -200 30v100q100 -36 200 -36q174 0 174 120
q0 106 -136 106h-164v94h163q137 0 137 106q0 110 -174 110q-100 0 -200 -36v100z" />
    <glyph glyph-name="Lslash" unicode="&#x141;" horiz-adv-x="1143" 
d="M160 592l-150 -110v110l150 110v728h105v-650l403 296v-110l-403 -296v-580h828v-90h-933v592z" />
    <glyph glyph-name="lslash" unicode="&#x142;" horiz-adv-x="465" 
d="M180 703v727h105v-649l150 111v-110l-150 -111v-671h-105v593l-150 -111v110z" />
    <glyph glyph-name="Zcaron" unicode="&#x17d;" horiz-adv-x="1270" 
d="M1135 1430v-90l-867 -1250h847v-90h-980v80l894 1260h-874v90h980zM400 1831h100l148 -194l152 194h100l-195 -260h-110z" />
    <glyph glyph-name="zcaron" unicode="&#x17e;" horiz-adv-x="1010" 
d="M130 1050h770v-90l-657 -870h637v-90h-770v90l665 870h-645v90zM259 1478h100l148 -194l152 194h100l-195 -260h-110z" />
    <glyph glyph-name="notequal" unicode="&#x2260;" horiz-adv-x="970" 
d="M407 330l-207 -330h-90l207 330h-207v90h264l132 210h-396v90h453l207 330h90l-207 -330h207v-90h-264l-132 -210h396v-90h-453z" />
    <glyph glyph-name="infinity" unicode="&#x221e;" horiz-adv-x="1540" 
d="M110 525q0 295 290 295q210 0 370 -220q160 220 370 220q290 0 290 -295t-290 -295q-210 0 -370 220q-160 -220 -370 -220q-290 0 -290 295zM1335 525q0 215 -195 215q-150 0 -320 -215q170 -215 320 -215q195 0 195 215zM400 310q150 0 320 215q-170 215 -320 215
q-195 0 -195 -215t195 -215z" />
    <glyph glyph-name="lessequal" unicode="&#x2264;" horiz-adv-x="970" 
d="M860 90v-90h-750v90h750zM110 630v90l750 350v-100l-653 -292l653 -298v-100z" />
    <glyph glyph-name="greaterequal" unicode="&#x2265;" horiz-adv-x="970" 
d="M860 90v-90h-750v90h750zM110 280v100l653 298l-653 292v100l750 -350v-90z" />
    <glyph glyph-name="partialdiff" unicode="&#x2202;" horiz-adv-x="1237" 
d="M378 1217v103q203 120 397 120q384 0 384 -427q0 -113 -27 -256q-162 -767 -662 -767q-313 0 -313 292q0 66 16 148q87 397 553 397h314q16 100 16 180q0 343 -292 343q-207 0 -386 -133zM1017 730h-313q-362 0 -426 -300q-13 -68 -13 -122q0 -228 229 -228
q381 0 523 650z" />
    <glyph glyph-name="summation" unicode="&#x2211;" horiz-adv-x="1350" 
d="M100 1430h1150v-90h-1040l580 -780l-580 -850h1040v-90h-1150v90l575 850l-575 780v90z" />
    <glyph glyph-name="product" unicode="&#x220f;" horiz-adv-x="1570" 
d="M1420 1430v-1810h-95v1720h-1070v-1720h-105v1810h1270z" />
    <glyph glyph-name="pi" unicode="&#x3c0;" horiz-adv-x="1385" 
d="M25 990q140 60 290 60h970v-90h-245v-640q0 -231 182 -231q11 0 23 1v-90q-33 -5 -62 -5q-248 0 -248 325v640h-515v-961h-105v961q-150 0 -290 -60v90z" />
    <glyph glyph-name="integral" unicode="&#x222b;" horiz-adv-x="529" 
d="M519 1570q-222 0 -222 -378q0 -30 1 -62l38 -690q2 -36 2 -70q0 -460 -328 -460v90q222 0 222 378q0 30 -1 62l-38 690q-2 36 -2 70q0 460 328 460v-90z" />
    <glyph glyph-name="Omega" unicode="&#x3a9;" horiz-adv-x="1610" 
d="M135 0v90h355q-370 310 -370 730q0 630 685 630t685 -630q0 -420 -370 -730h355v-90h-500v90q410 330 410 730q0 540 -580 540t-580 -540q0 -400 410 -730v-90h-500z" />
    <glyph glyph-name="Omega" unicode="&#x2126;" horiz-adv-x="1610" 
d="M135 0v90h355q-370 310 -370 730q0 630 685 630t685 -630q0 -420 -370 -730h355v-90h-500v90q410 330 410 730q0 540 -580 540t-580 -540q0 -400 410 -730v-90h-500z" />
    <glyph glyph-name="radical" unicode="&#x221a;" horiz-adv-x="1370" 
d="M85 1050h315l288 -923l552 1727h120l-620 -1861h-125l-300 967h-230v90z" />
    <glyph glyph-name="approxequal" unicode="&#x2248;" horiz-adv-x="1070" 
d="M960 420v-90q-111 -50 -220 -50t-215 50t-210 50q-103 0 -205 -50v90q112 50 220 50q109 0 215 -50t210 -50t205 50zM960 720v-90q-111 -50 -220 -50t-215 50t-210 50q-103 0 -205 -50v90q112 50 220 50q109 0 215 -50t210 -50t205 50z" />
    <glyph glyph-name="approxequal" unicode="&#x22f2;" horiz-adv-x="1070" 
d="M960 420v-90q-111 -50 -220 -50t-215 50t-210 50q-103 0 -205 -50v90q112 50 220 50q109 0 215 -50t210 -50t205 50zM960 720v-90q-111 -50 -220 -50t-215 50t-210 50q-103 0 -205 -50v90q112 50 220 50q109 0 215 -50t210 -50t205 50z" />
    <glyph glyph-name="Delta" unicode="&#x394;" horiz-adv-x="1492" 
d="M35 0l647 1430h126l649 -1430h-1422zM1291 90l-553 1258l-549 -1258h1102z" />
    <glyph glyph-name="Delta" unicode="&#x2206;" horiz-adv-x="1492" 
d="M35 0l647 1430h126l649 -1430h-1422zM1291 90l-553 1258l-549 -1258h1102z" />
    <glyph glyph-name="lozenge" unicode="&#x25ca;" horiz-adv-x="1105" 
d="M500 1430h105l440 -715l-440 -715h-105l-440 715zM165 715l388 -635l387 635l-387 635z" />
    <glyph glyph-name="fraction" unicode="&#x2044;" horiz-adv-x="1290" 
d="M235 0h-125l945 1430h125z" />
    <glyph glyph-name="MT.sign" unicode="&#xf000;" horiz-adv-x="1724" 
d="M1181 332v102l-255 13v540h127l51 -400h115l-38 511h-239l-80 -38l-79 38h-240l-38 -511h114l51 400h128v-540l-255 -13v-102h638zM534 1330l37 89l89 -37l53 80l81 -53l68 67l68 -67l81 53l53 -80l89 37l37 -89l94 19l20 -96h97v-96l94 -19l-19 -94l89 -37l-36 -90
l81 -52l-54 -82l68 -67l-69 -69l55 -82l-82 -52l37 -90l-89 -37l19 -94l-94 -19v-96h-97l-20 -96l-94 19l-37 -89l-89 37l-53 -80l-81 53l-68 -67l-68 67l-81 -53l-53 80l-89 -37l-37 89l-95 -19l-19 96h-97v96l-95 19l19 94l-90 39l37 88l-80 53l55 81l-69 69l69 67l-55 82
l82 54l-37 88l89 37l-19 94l94 19v96h97l19 96zM862 1347q-262 0 -447 -185t-185 -446q0 -263 185 -448t447 -185t447 185t185 448q0 261 -185 446t-447 185zM1270 1123.5q169 -169.5 169 -407.5q0 -240 -169 -409.5t-408 -169.5t-408 169.5t-169 409.5q0 238 169 407.5
t408 169.5t408 -169.5z" />
    <glyph glyph-name="dotlessi" unicode="&#x131;" horiz-adv-x="445" 
d="M275 1050v-1050h-105v1050h105z" />
    <glyph glyph-name="breve" unicode="&#x2d8;" horiz-adv-x="710" 
d="M100 1430h85q0 -180 170 -180t170 180h85q0 -260 -255 -260t-255 260z" />
    <glyph glyph-name="dotaccent" unicode="&#x2d9;" horiz-adv-x="365" 
d="M265 1430v-150h-165v150h165z" />
    <glyph glyph-name="ring" unicode="&#x2da;" horiz-adv-x="632" 
d="M318 1226q134 0 134 137q0 134 -134 134q-138 0 -138 -134q0 -137 138 -137zM100 1361q0 200 218 200q214 0 214 -200q0 -199 -214 -199q-218 0 -218 199z" />
    <glyph glyph-name="hungarumlaut" unicode="&#x2dd;" horiz-adv-x="804" 
d="M264 1430h159l-239 -239h-84zM545 1430h159l-239 -239h-84z" />
    <glyph glyph-name="ogonek" unicode="&#x2db;" horiz-adv-x="560" 
d="M440 0q-242 -126 -242 -228q0 -118 125 -118q85 0 137 20v-80q-61 -20 -149 -20q-211 0 -211 173q0 151 215 253h125z" />
    <glyph glyph-name="caron" unicode="&#x2c7;" horiz-adv-x="700" 
d="M100 1430h100l148 -194l152 194h100l-195 -260h-110z" />
    <glyph glyph-name="Euro" unicode="&#x20ac;" horiz-adv-x="1405" 
d="M1260 50q-185 -60 -400 -60q-750 0 -750 745q0 705 750 705q215 0 400 -60v-100q-185 70 -380 70q-568 0 -645 -438h833v-90h-843v-170h843v-90h-833q77 -482 645 -482q195 0 380 70v-100z" />
    <glyph glyph-name="Zdot" unicode="&#x17b;" horiz-adv-x="1270" 
d="M1135 1430v-90l-867 -1250h847v-90h-980v80l894 1260h-874v90h980zM718 1810v-150h-165v150h165z" />
    <glyph glyph-name="zdot" unicode="&#x17c;" horiz-adv-x="1020" 
d="M130 1050h780v-90l-667 -870h647v-90h-780v90l675 870h-655v90zM593 1430v-150h-165v150h165z" />
    <glyph glyph-name="Zacute" unicode="&#x179;" horiz-adv-x="1270" 
d="M1135 1430v-90l-867 -1250h847v-90h-980v80l894 1260h-874v90h980zM691 1810h159l-239 -239h-84z" />
    <glyph glyph-name="zacute" unicode="&#x17a;" horiz-adv-x="1020" 
d="M130 1050h780v-90l-667 -870h647v-90h-780v90l675 870h-655v90zM566 1430h159l-239 -239h-84z" />
    <glyph glyph-name="Aogonek" unicode="&#x104;" horiz-adv-x="1492" 
d="M147 0h-112l647 1430h125l650 -1430q-242 -126 -242 -228q0 -118 125 -118q85 0 137 20v-80q-61 -20 -149 -20q-211 0 -211 173q0 151 215 253l-212 480h-641l31 90h571l-343 778z" />
    <glyph glyph-name="aogonek" unicode="&#x105;" horiz-adv-x="1095" 
d="M516 520q-311 0 -311 -220q0 -210 260 -210q192 0 365 102v308q-167 20 -314 20zM830 10v94q-180 -104 -365 -104q-365 0 -365 297q0 313 416 313q147 0 314 -20v129q0 241 -303 241q-162 0 -332 -50v90q170 50 332 50q408 0 408 -326v-724q-242 -126 -242 -228
q0 -118 125 -118q85 0 137 20v-80q-61 -20 -149 -20q-211 0 -211 173q0 151 235 263z" />
    <glyph glyph-name="Cacute" unicode="&#x106;" horiz-adv-x="1405" 
d="M1260 50q-195 -60 -400 -60q-750 0 -750 745q0 705 750 705q205 0 400 -60v-90q-195 60 -380 60q-665 0 -665 -615q0 -655 665 -655q185 0 380 60v-90zM741 1810h159l-239 -239h-84z" />
    <glyph glyph-name="cacute" unicode="&#x107;" horiz-adv-x="1005" 
d="M920 30q-130 -30 -280 -30q-530 0 -530 545q0 505 530 505q150 0 280 -30v-90q-140 30 -270 30q-425 0 -425 -415q0 -455 425 -455q130 0 270 30v-90zM571 1430h159l-239 -239h-84z" />
    <glyph glyph-name="Nacute" unicode="&#x143;" horiz-adv-x="1505" 
d="M160 0v1430h135l955 -1252v1252h95v-1430h-85l-1005 1312v-1312h-95zM809 1810h159l-239 -239h-84z" />
    <glyph glyph-name="nacute" unicode="&#x144;" 
d="M160 0v1050h75l13 -134q201 134 394 134q383 0 383 -331v-719h-105v722q0 234 -283 234q-189 0 -372 -133v-823h-105zM649 1430h159l-239 -239h-84z" />
    <glyph glyph-name="Sacute" unicode="&#x15a;" horiz-adv-x="1310" 
d="M150 50v110q225 -80 496 -80q449 0 449 340q0 250 -292 250h-294q-399 0 -399 360q0 410 585 410q240 0 465 -60v-100q-225 70 -465 70q-480 0 -480 -320q0 -260 294 -260h294q397 0 397 -350q0 -430 -554 -430q-271 0 -496 60zM711 1810h159l-239 -239h-84z" />
    <glyph glyph-name="sacute" unicode="&#x15b;" horiz-adv-x="1030" 
d="M144 50v100q175 -60 344 -60q331 0 331 210q0 170 -245 170h-134q-330 0 -330 280q0 300 437 300q168 0 343 -50v-100q-175 60 -343 60q-332 0 -332 -210q0 -180 225 -180h134q350 0 350 -270q0 -300 -436 -300q-169 0 -344 50zM575 1430h159l-239 -239h-84z" />
    <glyph glyph-name="Eogonek" unicode="&#x118;" horiz-adv-x="1248" 
d="M988 0h-828v1430h939v-90h-834v-570h800v-90h-800v-590h848v-90q-242 -126 -242 -228q0 -118 125 -118q85 0 137 20v-80q-61 -20 -149 -20q-211 0 -211 173q0 151 215 253z" />
    <glyph glyph-name="eogonek" unicode="&#x119;" horiz-adv-x="1124" 
d="M215 596h698q-6 366 -330 366q-350 0 -368 -366zM834 19q-86 -19 -183 -19q-541 0 -541 537q0 513 473 513q431 0 431 -477q0 -34 -2 -71h-797q0 -412 436 -412q179 0 318 50v-90q-242 -176 -242 -278q0 -118 125 -118q85 0 137 20v-80q-61 -20 -149 -20q-211 0 -211 173
q0 144 205 272z" />
    <glyph glyph-name="Ccaron" unicode="&#x10c;" horiz-adv-x="1405" 
d="M1260 50q-195 -60 -400 -60q-750 0 -750 745q0 705 750 705q205 0 400 -60v-90q-195 60 -380 60q-665 0 -665 -615q0 -655 665 -655q185 0 380 60v-90zM546 1810h100l148 -194l152 194h100l-195 -260h-110z" />
    <glyph glyph-name="ccaron" unicode="&#x10d;" horiz-adv-x="1005" 
d="M920 30q-130 -30 -280 -30q-530 0 -530 545q0 505 530 505q150 0 280 -30v-90q-140 30 -270 30q-425 0 -425 -415q0 -455 425 -455q130 0 270 30v-90zM338 1430h100l148 -194l152 194h100l-195 -260h-110z" />
    <glyph glyph-name="Dcaron" unicode="&#x10e;" horiz-adv-x="1520" 
d="M660 90q595 0 595 664q0 586 -595 586h-395v-1250h395zM160 0v1430h510q700 0 700 -676q0 -754 -710 -754h-500zM393 1810h100l148 -194l152 194h100l-195 -260h-110z" />
    <glyph glyph-name="dcaron" unicode="&#x10f;" horiz-adv-x="1190" 
d="M1395 1430l-150 -435h-115l150 435h115zM925 896q-152 54 -316 54q-387 0 -387 -397q0 -459 387 -459q164 0 316 39v763zM1030 63q-171 -63 -431 -63q-489 0 -489 546q0 504 498 504q156 0 317 -50v430h105v-1367z" />
    <glyph glyph-name="Ecaron" unicode="&#x11a;" horiz-adv-x="1248" 
d="M1099 1430v-90h-834v-570h800v-90h-800v-590h848v-90h-953v1430h939zM387 1810h100l148 -194l152 194h100l-195 -260h-110z" />
    <glyph glyph-name="ecaron" unicode="&#x11b;" horiz-adv-x="1146" 
d="M583 1050q431 0 431 -477q0 -34 -2 -71h-797q0 -412 436 -412q179 0 318 50v-90q-139 -50 -318 -50q-541 0 -541 537q0 513 473 513zM215 596h698q-6 366 -330 366q-350 0 -368 -366zM332 1430h100l148 -194l152 194h100l-195 -260h-110z" />
    <glyph glyph-name="Ncaron" unicode="&#x147;" horiz-adv-x="1505" 
d="M160 0v1430h135l955 -1252v1252h95v-1430h-85l-1005 1312v-1312h-95zM503 1810h100l148 -194l152 194h100l-195 -260h-110z" />
    <glyph glyph-name="ncaron" unicode="&#x148;" 
d="M160 0v1050h75l13 -134q201 134 394 134q383 0 383 -331v-719h-105v722q0 234 -283 234q-189 0 -372 -133v-823h-105zM343 1430h100l148 -194l152 194h100l-195 -260h-110z" />
    <glyph glyph-name="Rcaron" unicode="&#x158;" horiz-adv-x="1235" 
d="M160 0v1430h590q388 0 388 -343q0 -297 -421 -421l483 -666h-144l-475 663v71q440 65 440 345q0 258 -288 258h-468v-1337h-105zM348 1810h100l148 -194l152 194h100l-195 -260h-110z" />
    <glyph glyph-name="rcaron" unicode="&#x159;" horiz-adv-x="635" 
d="M160 0v1050h75l13 -174q158 174 352 174v-84q-188 0 -335 -183v-783h-105zM130 1430h100l148 -194l152 194h100l-195 -260h-110z" />
    <glyph glyph-name="Tcaron" unicode="&#x164;" horiz-adv-x="1095" 
d="M1085 1430v-90h-490v-1340h-105v1340h-480v90h1075zM298 1810h100l148 -194l152 194h100l-195 -260h-110z" />
    <glyph glyph-name="tcaron" unicode="&#x165;" horiz-adv-x="627" 
d="M156 1220h64l19 -170h305v-90h-286v-663q0 -207 152 -207h134v-90h-132q-256 0 -256 283v937zM859 1430l-150 -435h-115l150 435h115z" />
    <glyph glyph-name="Uring" unicode="&#x16e;" horiz-adv-x="1470" 
d="M160 552v878h105v-878q0 -472 470 -472t470 472v878h105v-878q0 -562 -575 -562t-575 562zM737 1508q134 0 134 137q0 134 -134 134q-138 0 -138 -134q0 -137 138 -137zM519 1643q0 200 218 200q214 0 214 -200q0 -199 -214 -199q-218 0 -218 199z" />
    <glyph glyph-name="uring" unicode="&#x16f;" 
d="M1025 1050v-1050h-77l-12 134q-181 -134 -404 -134q-372 0 -372 391v659h105v-662q0 -294 272 -294q199 0 383 133v823h105zM575 1226q134 0 134 137q0 134 -134 134q-138 0 -138 -134q0 -137 138 -137zM357 1361q0 200 218 200q214 0 214 -200q0 -199 -214 -199
q-218 0 -218 199z" />
    <glyph glyph-name="Amacron" unicode="&#x100;" horiz-adv-x="1492" 
d="M147 0h-112l647 1430h125l650 -1430h-125l-212 480h-641l31 90h571l-343 778zM996 1810v-90h-500v90h500z" />
    <glyph glyph-name="amacron" unicode="&#x101;" horiz-adv-x="1095" 
d="M100 297q0 313 416 313q147 0 314 -20v129q0 241 -303 241q-162 0 -332 -50v90q170 50 332 50q408 0 408 -326v-724h-64l-24 104q-197 -104 -382 -104q-365 0 -365 297zM516 520q-311 0 -311 -220q0 -210 260 -210q192 0 365 102v308q-167 20 -314 20zM808 1430v-90h-500
v90h500z" />
    <glyph glyph-name="Abreve" unicode="&#x102;" horiz-adv-x="1492" 
d="M147 0h-112l647 1430h125l650 -1430h-125l-212 480h-641l31 90h571l-343 778zM491 1810h85q0 -180 170 -180t170 180h85q0 -260 -255 -260t-255 260z" />
    <glyph glyph-name="abreve" unicode="&#x103;" horiz-adv-x="1095" 
d="M100 297q0 313 416 313q147 0 314 -20v129q0 241 -303 241q-162 0 -332 -50v90q170 50 332 50q408 0 408 -326v-724h-64l-24 104q-197 -104 -382 -104q-365 0 -365 297zM516 520q-311 0 -311 -220q0 -210 260 -210q192 0 365 102v308q-167 20 -314 20zM303 1430h85
q0 -180 170 -180t170 180h85q0 -260 -255 -260t-255 260z" />
    <glyph glyph-name="Ccircumflex" unicode="&#x108;" horiz-adv-x="1405" 
d="M1260 50q-195 -60 -400 -60q-750 0 -750 745q0 705 750 705q205 0 400 -60v-90q-195 60 -380 60q-665 0 -665 -615q0 -655 665 -655q185 0 380 60v-90zM790 1810h110l195 -260h-100l-152 194l-148 -194h-100z" />
    <glyph glyph-name="ccircumflex" unicode="&#x109;" horiz-adv-x="1005" 
d="M920 30q-130 -30 -280 -30q-530 0 -530 545q0 505 530 505q150 0 280 -30v-90q-140 30 -270 30q-425 0 -425 -415q0 -455 425 -455q130 0 270 30v-90zM540 1430h110l195 -260h-100l-152 194l-148 -194h-100z" />
    <glyph glyph-name="Cdotaccent" unicode="&#x10a;" horiz-adv-x="1405" 
d="M1260 50q-195 -60 -400 -60q-750 0 -750 745q0 705 750 705q205 0 400 -60v-90q-195 60 -380 60q-665 0 -665 -615q0 -655 665 -655q185 0 380 60v-90zM948 1810v-150h-165v150h165z" />
    <glyph glyph-name="cdotaccent" unicode="&#x10b;" horiz-adv-x="1005" 
d="M920 30q-130 -30 -280 -30q-530 0 -530 545q0 505 530 505q150 0 280 -30v-90q-140 30 -270 30q-425 0 -425 -415q0 -455 425 -455q130 0 270 30v-90zM708 1430v-150h-165v150h165z" />
    <glyph glyph-name="Dcroat" unicode="&#x110;" horiz-adv-x="1520" 
d="M265 770h445v-90h-445v-590h395q595 0 595 664q0 586 -595 586h-395v-570zM160 680h-200v90h200v660h510q700 0 700 -676q0 -754 -710 -754h-500v680z" />
    <glyph glyph-name="dcroat" unicode="&#x111;" horiz-adv-x="1190" 
d="M925 896q-152 54 -316 54q-387 0 -387 -397q0 -459 387 -459q164 0 316 39v763zM925 1170h-785v90h785v170h105v-1367q-171 -63 -431 -63q-489 0 -489 546q0 504 498 504q156 0 317 -50v170z" />
    <glyph glyph-name="Emacron" unicode="&#x112;" horiz-adv-x="1248" 
d="M1099 1430v-90h-834v-570h800v-90h-800v-590h848v-90h-953v1430h939zM887 1810v-90h-500v90h500z" />
    <glyph glyph-name="emacron" unicode="&#x113;" horiz-adv-x="1146" 
d="M583 1050q431 0 431 -477q0 -34 -2 -71h-797q0 -412 436 -412q179 0 318 50v-90q-139 -50 -318 -50q-541 0 -541 537q0 513 473 513zM215 596h698q-6 366 -330 366q-350 0 -368 -366zM832 1430v-90h-500v90h500z" />
    <glyph glyph-name="Ebreve" unicode="&#x114;" horiz-adv-x="1248" 
d="M1099 1430v-90h-834v-570h800v-90h-800v-590h848v-90h-953v1430h939zM382 1810h85q0 -180 170 -180t170 180h85q0 -260 -255 -260t-255 260z" />
    <glyph glyph-name="ebreve" unicode="&#x115;" horiz-adv-x="1146" 
d="M583 1050q431 0 431 -477q0 -34 -2 -71h-797q0 -412 436 -412q179 0 318 50v-90q-139 -50 -318 -50q-541 0 -541 537q0 513 473 513zM215 596h698q-6 366 -330 366q-350 0 -368 -366zM327 1430h85q0 -180 170 -180t170 180h85q0 -260 -255 -260t-255 260z" />
    <glyph glyph-name="Edotaccent" unicode="&#x116;" horiz-adv-x="1248" 
d="M1099 1430v-90h-834v-570h800v-90h-800v-590h848v-90h-953v1430h939zM719 1810v-150h-165v150h165z" />
    <glyph glyph-name="edotaccent" unicode="&#x117;" horiz-adv-x="1146" 
d="M583 1050q431 0 431 -477q0 -34 -2 -71h-797q0 -412 436 -412q179 0 318 50v-90q-139 -50 -318 -50q-541 0 -541 537q0 513 473 513zM215 596h698q-6 366 -330 366q-350 0 -368 -366zM655 1430v-150h-165v150h165z" />
    <glyph glyph-name="Gcircumflex" unicode="&#x11c;" horiz-adv-x="1405" 
d="M1260 56q-183 -66 -383 -66q-767 0 -767 745q0 705 750 705q205 0 400 -60v-90q-195 60 -380 60q-665 0 -665 -615q0 -655 646 -655q132 0 294 44v526h105v-594zM780 1810h110l195 -260h-100l-152 194l-148 -194h-100z" />
    <glyph glyph-name="gcircumflex" unicode="&#x11d;" horiz-adv-x="1187" 
d="M922 932q-145 24 -285 24q-425 0 -425 -423q0 -433 397 -433q144 0 313 54v778zM1027 0q0 -380 -463 -380q-194 0 -344 50v90q153 -50 346 -50q356 0 356 290v50q-178 -50 -314 -50q-498 0 -498 531q0 519 535 519q203 0 382 -43v-1007zM564 1430h110l195 -260h-100
l-152 194l-148 -194h-100z" />
    <glyph glyph-name="Gbreve" unicode="&#x11e;" horiz-adv-x="1405" 
d="M1260 56q-183 -66 -383 -66q-767 0 -767 745q0 705 750 705q205 0 400 -60v-90q-195 60 -380 60q-665 0 -665 -615q0 -655 646 -655q132 0 294 44v526h105v-594zM550 1810h85q0 -180 170 -180t170 180h85q0 -260 -255 -260t-255 260z" />
    <glyph glyph-name="gbreve" unicode="&#x11f;" horiz-adv-x="1187" 
d="M922 932q-145 24 -285 24q-425 0 -425 -423q0 -433 397 -433q144 0 313 54v778zM1027 0q0 -380 -463 -380q-194 0 -344 50v90q153 -50 346 -50q356 0 356 290v50q-178 -50 -314 -50q-498 0 -498 531q0 519 535 519q203 0 382 -43v-1007zM344 1430h85q0 -180 170 -180
t170 180h85q0 -260 -255 -260t-255 260z" />
    <glyph glyph-name="Gdotaccent" unicode="&#x120;" horiz-adv-x="1405" 
d="M1260 56q-183 -66 -383 -66q-767 0 -767 745q0 705 750 705q205 0 400 -60v-90q-195 60 -380 60q-665 0 -665 -615q0 -655 646 -655q132 0 294 44v526h105v-594zM918 1810v-150h-165v150h165z" />
    <glyph glyph-name="gdotaccent" unicode="&#x121;" horiz-adv-x="1187" 
d="M922 932q-145 24 -285 24q-425 0 -425 -423q0 -433 397 -433q144 0 313 54v778zM1027 0q0 -380 -463 -380q-194 0 -344 50v90q153 -50 346 -50q356 0 356 290v50q-178 -50 -314 -50q-498 0 -498 531q0 519 535 519q203 0 382 -43v-1007zM721 1430v-150h-165v150h165z" />
    <glyph glyph-name="Gcommaaccent" unicode="&#x122;" horiz-adv-x="1405" 
d="M1260 56q-183 -66 -383 -66q-767 0 -767 745q0 705 750 705q205 0 400 -60v-90q-195 60 -380 60q-665 0 -665 -615q0 -655 646 -655q132 0 294 44v526h105v-594zM813 -100l-150 -280h-105l150 280h105z" />
    <glyph glyph-name="gcommaaccent" unicode="&#x123;" horiz-adv-x="1187" 
d="M922 932q-175 24 -315 24q-395 0 -395 -423q0 -433 377 -433q144 0 333 54v778zM1027 0q0 -380 -463 -380q-194 0 -344 50v90q153 -50 346 -50q356 0 356 290v50q-198 -50 -334 -50q-478 0 -478 531q0 519 505 519q213 0 412 -43v-1007zM774 1430l-150 -280h-105l150 280
h105z" />
    <glyph glyph-name="Hcircumflex" unicode="&#x124;" horiz-adv-x="1505" 
d="M160 0v1430h105v-660h975v660h105v-1430h-105v680h-975v-680h-105zM698 1810h110l195 -260h-100l-152 194l-148 -194h-100z" />
    <glyph glyph-name="hcircumflex" unicode="&#x125;" 
d="M160 0v1430h105v-494q184 114 377 114q383 0 383 -391v-659h-105v702q0 254 -283 254q-189 0 -372 -133v-823h-105zM168 1835h110l195 -260h-100l-152 194l-148 -194h-100z" />
    <glyph glyph-name="Hbar" unicode="&#x126;" horiz-adv-x="1505" 
d="M1240 1140v290h105v-1430h-105v680h-975v-680h-105v1430h105v-290h975zM265 1050v-280h975v280h-975z" />
    <glyph glyph-name="hbar" unicode="&#x127;" 
d="M265 1170v-234q184 114 377 114q383 0 383 -391v-659h-105v702q0 254 -283 254q-189 0 -372 -133v-823h-105v1430h105v-170h760v-90h-760z" />
    <glyph glyph-name="Itilde" unicode="&#x128;" horiz-adv-x="525" 
d="M316 1430v-1430h-105v1430h105zM13 1764q60 46 130 46q52 0 110 -26t114 -26q75 0 146 46v-90q-60 -46 -130 -46q-52 0 -110 26t-114 26q-75 0 -146 -46v90z" />
    <glyph glyph-name="itilde" unicode="&#x129;" horiz-adv-x="445" 
d="M276 1050v-1050h-105v1050h105zM-27 1384q60 46 130 46q52 0 110 -26t114 -26q75 0 146 46v-90q-60 -46 -130 -46q-52 0 -110 26t-114 26q-75 0 -146 -46v90z" />
    <glyph glyph-name="Imacron" unicode="&#x12a;" horiz-adv-x="525" 
d="M316 1430v-1430h-105v1430h105zM513 1810v-90h-500v90h500z" />
    <glyph glyph-name="imacron" unicode="&#x12b;" horiz-adv-x="445" 
d="M276 1050v-1050h-105v1050h105zM473 1430v-90h-500v90h500z" />
    <glyph glyph-name="Ibreve" unicode="&#x12c;" horiz-adv-x="525" 
d="M316 1430v-1430h-105v1430h105zM8 1810h85q0 -180 170 -180t170 180h85q0 -260 -255 -260t-255 260z" />
    <glyph glyph-name="ibreve" unicode="&#x12d;" horiz-adv-x="445" 
d="M276 1050v-1050h-105v1050h105zM-32 1430h85q0 -180 170 -180t170 180h85q0 -260 -255 -260t-255 260z" />
    <glyph glyph-name="Iogonek" unicode="&#x12e;" horiz-adv-x="525" 
d="M210 0v1430h105v-1430q-222 -126 -222 -228q0 -118 125 -118q85 0 137 20v-80q-61 -20 -149 -20q-211 0 -211 173q0 151 215 253z" />
    <glyph glyph-name="iogonek" unicode="&#x12f;" horiz-adv-x="465" 
d="M295 1430v-120h-125v120h125zM180 0v1050h105v-1050q-222 -126 -222 -228q0 -118 125 -118q85 0 137 20v-80q-61 -20 -149 -20q-211 0 -211 173q0 151 215 253z" />
    <glyph glyph-name="Idotaccent" unicode="&#x130;" horiz-adv-x="525" 
d="M315 1430v-1430h-105v1430h105zM345 1810v-150h-165v150h165z" />
    <glyph glyph-name="IJ" unicode="&#x132;" horiz-adv-x="1175" 
d="M315 1430v-1430h-105v1430h105zM1015 1430v-1018q0 -412 -455 -412v90q350 0 350 322v1018h105z" />
    <glyph glyph-name="ij" unicode="&#x133;" horiz-adv-x="930" 
d="M295 1430v-120h-125v120h125zM285 1050v-1050h-105v1050h105zM760 1430v-120h-125v120h125zM750 1050v-970q0 -318 -155 -448l-75 65q125 115 125 383v970h105z" />
    <glyph glyph-name="Jcircumflex" unicode="&#x134;" horiz-adv-x="650" 
d="M491 1430v-1018q0 -412 -455 -412v90q350 0 350 322v1018h105zM378 1810h110l195 -260h-100l-152 194l-148 -194h-100z" />
    <glyph glyph-name="jcircumflex" unicode="&#x135;" horiz-adv-x="465" 
d="M285 1050v-970q0 -318 -155 -448l-75 65q125 115 125 383v970h105zM175 1430h110l195 -260h-100l-152 194l-148 -194h-100z" />
    <glyph glyph-name="Kcommaaccent" unicode="&#x136;" horiz-adv-x="1300" 
d="M265 1430v-1430h-105v1430h105zM1246 1430l-681 -677l705 -753h-157l-653 718v62l642 650h144zM743 -100l-150 -280h-105l150 280h105z" />
    <glyph glyph-name="kcommaaccent" unicode="&#x137;" horiz-adv-x="1106" 
d="M150 0v1430h105v-472q183 92 403 92q372 0 372 -303q0 -230 -330 -314l356 -433h-154l-334 435v63q357 41 357 250q0 212 -290 212q-193 0 -380 -94v-866h-105zM681 -100l-150 -280h-105l150 280h105z" />
    <glyph glyph-name="kgreenlandic" unicode="&#x138;" horiz-adv-x="1002" 
d="M996 1050l-490 -481l496 -569h-147l-444 525v73l447 452h138zM150 0v1050h105v-1050h-105z" />
    <glyph glyph-name="Lacute" unicode="&#x139;" horiz-adv-x="1143" 
d="M265 1430v-1340h828v-90h-933v1430h105zM273 1810h159l-239 -239h-84z" />
    <glyph glyph-name="lacute" unicode="&#x13a;" horiz-adv-x="465" 
d="M285 1430v-1430h-105v1430h105zM235 1835h159l-239 -239h-84z" />
    <glyph glyph-name="Lcommaaccent" unicode="&#x13b;" horiz-adv-x="1143" 
d="M265 1430v-1340h828v-90h-933v1430h105zM704 -100l-150 -280h-105l150 280h105z" />
    <glyph glyph-name="lcommaaccent" unicode="&#x13c;" horiz-adv-x="465" 
d="M285 1430v-1430h-105v1430h105zM280 -100l-150 -280h-105l150 280h105z" />
    <glyph glyph-name="Lcaron" unicode="&#x13d;" horiz-adv-x="1143" 
d="M265 1430v-1340h828v-90h-933v1430h105zM750 1430l-150 -435h-115l150 435h115z" />
    <glyph glyph-name="lcaron" unicode="&#x13e;" horiz-adv-x="465" 
d="M285 1430v-1430h-105v1430h105zM650 1430l-150 -435h-115l150 435h115z" />
    <glyph glyph-name="Ldot" unicode="&#x13f;" horiz-adv-x="1143" 
d="M265 1430v-1340h828v-90h-933v1430h105zM570 715q0 95 95 95t95 -95t-95 -95t-95 95z" />
    <glyph glyph-name="ldot" unicode="&#x140;" horiz-adv-x="465" 
d="M285 1430v-1430h-105v1430h105zM414 566q0 95 95 95t95 -95t-95 -95t-95 95z" />
    <glyph glyph-name="Ncommaaccent" unicode="&#x145;" horiz-adv-x="1505" 
d="M160 0v1430h135l955 -1252v1252h95v-1430h-85l-1005 1312v-1312h-95zM830 -100l-150 -280h-105l150 280h105z" />
    <glyph glyph-name="ncommaaccent" unicode="&#x146;" 
d="M160 0v1050h75l13 -134q201 134 394 134q383 0 383 -331v-719h-105v722q0 234 -283 234q-189 0 -372 -133v-823h-105zM670 -100l-150 -280h-105l150 280h105z" />
    <glyph glyph-name="napostrophe" unicode="&#x149;" 
d="M160 0v1050h75l13 -134q201 134 394 134q383 0 383 -331v-719h-105v722q0 234 -283 234q-189 0 -372 -133v-823h-105zM115 1430l-150 -435h-115l150 435h115z" />
    <glyph glyph-name="Eng" unicode="&#x14a;" horiz-adv-x="1505" 
d="M1250 1430h95v-1350q0 -318 -155 -448l-75 65q118 101 133 319l-993 1296v-1312h-95v1430h135l955 -1252v1252z" />
    <glyph glyph-name="eng" unicode="&#x14b;" 
d="M920 722q0 234 -283 234q-189 0 -372 -133v-823h-105v1050h75l13 -134q201 134 394 134q383 0 383 -331v-639q0 -318 -155 -448l-75 65q125 115 125 383v642z" />
    <glyph glyph-name="Omacron" unicode="&#x14c;" horiz-adv-x="1645" 
d="M828 80q592 0 592 639q0 631 -592 631q-603 0 -603 -631q0 -639 603 -639zM110 713q0 727 718 727q707 0 707 -727q0 -723 -707 -723q-718 0 -718 723zM1073 1810v-90h-500v90h500z" />
    <glyph glyph-name="omacron" unicode="&#x14d;" horiz-adv-x="1200" 
d="M600 80q385 0 385 449q0 441 -385 441t-385 -441q0 -449 385 -449zM110 525q0 535 490 535t490 -535q0 -534 -490 -534q-488 0 -490 534zM850 1430v-90h-500v90h500z" />
    <glyph glyph-name="Obreve" unicode="&#x14e;" horiz-adv-x="1645" 
d="M828 80q592 0 592 639q0 631 -592 631q-603 0 -603 -631q0 -639 603 -639zM110 713q0 727 718 727q707 0 707 -727q0 -723 -707 -723q-718 0 -718 723zM568 1810h85q0 -180 170 -180t170 180h85q0 -260 -255 -260t-255 260z" />
    <glyph glyph-name="obreve" unicode="&#x14f;" horiz-adv-x="1200" 
d="M600 80q385 0 385 449q0 441 -385 441t-385 -441q0 -449 385 -449zM110 525q0 535 490 535t490 -535q0 -534 -490 -534q-488 0 -490 534zM345 1430h85q0 -180 170 -180t170 180h85q0 -260 -255 -260t-255 260z" />
    <glyph glyph-name="Ohungarumlaut" unicode="&#x150;" horiz-adv-x="1645" 
d="M828 80q592 0 592 639q0 631 -592 631q-603 0 -603 -631q0 -639 603 -639zM110 713q0 727 718 727q707 0 707 -727q0 -723 -707 -723q-718 0 -718 723zM735 1810h159l-239 -239h-84zM1016 1810h159l-239 -239h-84z" />
    <glyph glyph-name="ohungarumlaut" unicode="&#x151;" horiz-adv-x="1200" 
d="M600 80q385 0 385 449q0 441 -385 441t-385 -441q0 -449 385 -449zM110 525q0 535 490 535t490 -535q0 -534 -490 -534q-488 0 -490 534zM512 1430h159l-239 -239h-84zM793 1430h159l-239 -239h-84z" />
    <glyph glyph-name="Racute" unicode="&#x154;" horiz-adv-x="1235" 
d="M160 0v1430h590q388 0 388 -343q0 -297 -421 -421l483 -666h-144l-475 663v71q440 65 440 345q0 258 -288 258h-468v-1337h-105zM636 1810h159l-239 -239h-84z" />
    <glyph glyph-name="racute" unicode="&#x155;" horiz-adv-x="635" 
d="M160 0v1050h75l13 -174q158 174 352 174v-84q-188 0 -335 -183v-783h-105zM436 1430h159l-239 -239h-84z" />
    <glyph glyph-name="Rcommaaccent" unicode="&#x156;" horiz-adv-x="1235" 
d="M160 0v1430h590q388 0 388 -343q0 -297 -421 -421l483 -666h-144l-475 663v71q440 65 440 345q0 258 -288 258h-468v-1337h-105zM708 -100l-150 -280h-105l150 280h105z" />
    <glyph glyph-name="rcommaaccent" unicode="&#x157;" horiz-adv-x="635" 
d="M160 0v1050h75l13 -174q158 174 352 174v-84q-188 0 -335 -183v-783h-105zM258 -100l-150 -280h-105l150 280h105z" />
    <glyph glyph-name="Scircumflex" unicode="&#x15c;" horiz-adv-x="1310" 
d="M150 50v110q225 -80 496 -80q449 0 449 340q0 250 -292 250h-294q-399 0 -399 360q0 410 585 410q240 0 465 -60v-100q-225 70 -465 70q-480 0 -480 -320q0 -260 294 -260h294q397 0 397 -350q0 -430 -554 -430q-271 0 -496 60zM630 1810h110l195 -260h-100l-152 194
l-148 -194h-100z" />
    <glyph glyph-name="scircumflex" unicode="&#x15d;" horiz-adv-x="1030" 
d="M144 50v100q175 -60 344 -60q331 0 331 210q0 170 -245 170h-134q-330 0 -330 280q0 300 437 300q168 0 343 -50v-100q-175 60 -343 60q-332 0 -332 -210q0 -180 225 -180h134q350 0 350 -270q0 -300 -436 -300q-169 0 -344 50zM464 1430h110l195 -260h-100l-152 194
l-148 -194h-100z" />
    <glyph glyph-name="Scedilla" unicode="&#x15e;" horiz-adv-x="1310" 
d="M568 -9q-226 8 -418 59v110q225 -80 496 -80q449 0 449 340q0 250 -292 250h-294q-399 0 -399 360q0 410 585 410q240 0 465 -60v-100q-225 70 -465 70q-480 0 -480 -320q0 -260 294 -260h294q397 0 397 -350q0 -422 -534 -430l-36 -67q224 0 224 -172q0 -173 -241 -173
q-108 0 -216 50v88q108 -60 216 -60q148 0 148 95q0 94 -123 94h-153z" />
    <glyph glyph-name="scedilla" unicode="&#x15f;" horiz-adv-x="1030" 
d="M463 0q-159 3 -323 50v100q175 -60 344 -60q331 0 331 210q0 170 -245 170h-134q-330 0 -330 280q0 300 437 300q168 0 343 -50v-100q-175 60 -343 60q-332 0 -332 -210q0 -180 225 -180h134q350 0 350 -270q0 -272 -358 -297l-42 -80q224 0 224 -172q0 -173 -241 -173
q-108 0 -216 50v88q108 -60 216 -60q148 0 148 95q0 94 -123 94h-153z" />
    <glyph glyph-name="Scommaaccent" unicode="&#x218;" horiz-adv-x="1310" 
d="M150 50v110q225 -80 496 -80q449 0 449 340q0 250 -292 250h-294q-399 0 -399 360q0 410 585 410q240 0 465 -60v-100q-225 70 -465 70q-480 0 -480 -320q0 -260 294 -260h294q397 0 397 -350q0 -430 -554 -430q-271 0 -496 60zM733 -100l-150 -280h-105l150 280h105z
" />
    <glyph glyph-name="scommaaccent" unicode="&#x219;" horiz-adv-x="1030" 
d="M144 50v100q175 -60 344 -60q331 0 331 210q0 170 -245 170h-134q-330 0 -330 280q0 300 437 300q168 0 343 -50v-100q-175 60 -343 60q-332 0 -332 -210q0 -180 225 -180h134q350 0 350 -270q0 -300 -436 -300q-169 0 -344 50zM647 -100l-150 -280h-105l150 280h105z
" />
    <glyph glyph-name="Tcommaaccent" unicode="&#x162;" horiz-adv-x="1095" 
d="M1085 1430v-90h-490v-1340h-105v1340h-480v90h1075zM586 -100l-150 -280h-105l150 280h105z" />
    <glyph glyph-name="Tcommaaccent" unicode="&#x21a;" horiz-adv-x="1095" 
d="M1085 1430v-90h-490v-1340h-105v1340h-480v90h1075zM586 -100l-150 -280h-105l150 280h105z" />
    <glyph glyph-name="tcommaaccent" unicode="&#x163;" horiz-adv-x="627" 
d="M156 1220h74l19 -170h315v-90h-306v-663q0 -207 152 -207h154v-90h-152q-256 0 -256 283v937zM380 -100l-150 -280h-105l150 280h105z" />
    <glyph glyph-name="tcommaaccent" unicode="&#x21b;" horiz-adv-x="627" 
d="M156 1220h74l19 -170h315v-90h-306v-663q0 -207 152 -207h154v-90h-152q-256 0 -256 283v937zM380 -100l-150 -280h-105l150 280h105z" />
    <glyph glyph-name="Tbar" unicode="&#x166;" horiz-adv-x="1095" 
d="M490 760v580h-480v90h1075v-90h-490v-580h490v-90h-490v-670h-105v670h-480v90h480z" />
    <glyph glyph-name="tbar" unicode="&#x167;" horiz-adv-x="627" 
d="M156 593v627h74l19 -170h315v-90h-306v-367h306v-90h-306v-206q0 -207 152 -207h154v-90h-152q-256 0 -256 283v220h-156v90h156z" />
    <glyph glyph-name="Utilde" unicode="&#x168;" horiz-adv-x="1470" 
d="M160 552v878h105v-878q0 -472 470 -472t470 472v878h105v-878q0 -562 -575 -562t-575 562zM485 1764q60 46 130 46q52 0 110 -26t114 -26q75 0 146 46v-90q-60 -46 -130 -46q-52 0 -110 26t-114 26q-75 0 -146 -46v90z" />
    <glyph glyph-name="utilde" unicode="&#x169;" 
d="M1025 1050v-1050h-77l-12 134q-181 -134 -404 -134q-372 0 -372 391v659h105v-662q0 -294 272 -294q199 0 383 133v823h105zM323 1384q60 46 130 46q52 0 110 -26t114 -26q75 0 146 46v-90q-60 -46 -130 -46q-52 0 -110 26t-114 26q-75 0 -146 -46v90z" />
    <glyph glyph-name="Umacron" unicode="&#x16a;" horiz-adv-x="1470" 
d="M160 552v878h105v-878q0 -472 470 -472t470 472v878h105v-878q0 -562 -575 -562t-575 562zM985 1810v-90h-500v90h500z" />
    <glyph glyph-name="umacron" unicode="&#x16b;" 
d="M1025 1050v-1050h-77l-12 134q-181 -134 -404 -134q-372 0 -372 391v659h105v-662q0 -294 272 -294q199 0 383 133v823h105zM823 1430v-90h-500v90h500z" />
    <glyph glyph-name="Ubreve" unicode="&#x16c;" horiz-adv-x="1470" 
d="M160 552v878h105v-878q0 -472 470 -472t470 472v878h105v-878q0 -562 -575 -562t-575 562zM480 1810h85q0 -180 170 -180t170 180h85q0 -260 -255 -260t-255 260z" />
    <glyph glyph-name="ubreve" unicode="&#x16d;" 
d="M1025 1050v-1050h-77l-12 134q-181 -134 -404 -134q-372 0 -372 391v659h105v-662q0 -294 272 -294q199 0 383 133v823h105zM318 1430h85q0 -180 170 -180t170 180h85q0 -260 -255 -260t-255 260z" />
    <glyph glyph-name="Uhungarumlaut" unicode="&#x170;" horiz-adv-x="1470" 
d="M160 552v878h105v-878q0 -472 470 -472t470 472v878h105v-878q0 -562 -575 -562t-575 562zM647 1810h159l-239 -239h-84zM928 1810h159l-239 -239h-84z" />
    <glyph glyph-name="uhungarumlaut" unicode="&#x171;" 
d="M1025 1050v-1050h-77l-12 134q-181 -134 -404 -134q-372 0 -372 391v659h105v-662q0 -294 272 -294q199 0 383 133v823h105zM485 1430h159l-239 -239h-84zM766 1430h159l-239 -239h-84z" />
    <glyph glyph-name="Uogonek" unicode="&#x172;" horiz-adv-x="1470" 
d="M724 -10q-564 6 -564 562v878h105v-878q0 -472 470 -472t470 472v878h105v-878q0 -508 -469 -557q-214 -123 -214 -223q0 -118 125 -118q85 0 137 20v-80q-61 -20 -149 -20q-211 0 -211 173q0 144 195 243z" />
    <glyph glyph-name="uogonek" unicode="&#x173;" 
d="M920 10v124q-165 -134 -388 -134q-372 0 -372 391v659h105v-662q0 -294 272 -294q199 0 383 133v823h105v-1050q-242 -126 -242 -228q0 -118 125 -118q85 0 137 20v-80q-61 -20 -149 -20q-211 0 -211 173q0 151 235 263z" />
    <glyph glyph-name="Wcircumflex" unicode="&#x174;" horiz-adv-x="1869" 
d="M35 1430h109l233 -1329l462 1329h105l475 -1342l265 1342h101l-289 -1430h-152l-452 1306l-453 -1306h-149zM855 1810h110l195 -260h-100l-152 194l-148 -194h-100z" />
    <glyph glyph-name="wcircumflex" unicode="&#x175;" horiz-adv-x="1539" 
d="M60 1050h107l226 -923l333 923h77l342 -903l231 903h103l-274 -1050h-109l-331 895l-326 -895h-113zM715 1430h110l195 -260h-100l-152 194l-148 -194h-100z" />
    <glyph glyph-name="Ycircumflex" unicode="&#x176;" horiz-adv-x="1250" 
d="M35 1430h125l463 -830l477 830h115l-536 -930v-500h-105v500zM570 1810h110l195 -260h-100l-152 194l-148 -194h-100z" />
    <glyph glyph-name="ycircumflex" unicode="&#x177;" horiz-adv-x="1081" 
d="M35 1050h121l390 -948l384 948h116l-456 -1081q-116 -286 -348 -357l-31 84q182 66 278 288zM486 1430h110l195 -260h-100l-152 194l-148 -194h-100z" />
    <glyph glyph-name="longs" unicode="&#x17f;" horiz-adv-x="486" 
d="M160 0v1101q0 381 422 381q129 0 234 -40v-90q-99 40 -235 40q-316 0 -316 -293v-1099h-105z" />
    <glyph glyph-name="afii10023" unicode="&#x401;" horiz-adv-x="1248" 
d="M1099 1430v-90h-834v-570h800v-90h-800v-590h848v-90h-953v1430h939zM864 1790v-130h-135v130h135zM544 1790v-130h-135v130h135z" />
    <glyph glyph-name="afii10017" unicode="&#x410;" horiz-adv-x="1492" 
d="M147 0h-112l647 1430h125l650 -1430h-125l-212 480h-641l31 90h571l-343 778z" />
    <glyph glyph-name="afii10018" unicode="&#x411;" horiz-adv-x="1301" 
d="M1161 1430v-90h-895v-1247h487q318 0 318 309q0 328 -372 328h-188v90h197q468 0 468 -407q0 -413 -406 -413h-610v1430h1001z" />
    <glyph glyph-name="afii10019" unicode="&#x412;" horiz-adv-x="1330" 
d="M160 0v1430h610q408 0 408 -333q0 -244 -296 -349q314 -53 314 -335q0 -413 -447 -413h-589zM738 90q346 0 346 320q0 283 -433 283h-80v71q500 45 500 326q0 250 -308 250h-498v-1250h473z" />
    <glyph glyph-name="afii10020" unicode="&#x413;" horiz-adv-x="1013" 
d="M160 0v1430h853v-90h-748v-1340h-105z" />
    <glyph glyph-name="afii10021" unicode="&#x414;" horiz-adv-x="1619" 
d="M418 90h836v1250h-550q0 -999 -286 -1250zM0 -380v470h184q415 0 415 1250v90h760v-1340h185v-470h-105v380h-1335v-380h-104z" />
    <glyph glyph-name="afii10022" unicode="&#x415;" horiz-adv-x="1248" 
d="M1099 1430v-90h-834v-570h800v-90h-800v-590h848v-90h-953v1430h939z" />
    <glyph glyph-name="afii10024" unicode="&#x416;" horiz-adv-x="2039" 
d="M1825 0q-339 540 -427 631.5t-206 91.5v73q200 0 363.5 317t351.5 317h107v-90h-79q-158 0 -292 -271.5t-279 -310.5q75 -13 165 -112.5t440 -645.5h-144zM1072 1430v-1430h-105v1430h105zM70 0q350 546 440 645.5t165 112.5q-145 39 -279 310.5t-292 271.5h-79v90h107
q188 0 351.5 -317t363.5 -317v-73q-118 0 -206 -91.5t-427 -631.5h-144z" />
    <glyph glyph-name="afii10025" unicode="&#x417;" horiz-adv-x="1115" 
d="M100 1380q200 60 400 60q515 0 515 -390q0 -256 -238 -325q238 -65 238 -325q0 -410 -515 -410q-200 0 -400 60v100q200 -70 400 -70q410 0 410 320q0 280 -332 280h-328v90h325q335 0 335 280q0 300 -410 300q-200 0 -400 -70v100z" />
    <glyph glyph-name="afii10026" unicode="&#x418;" horiz-adv-x="1435" 
d="M1170 0v1272l-895 -1272h-115v1430h105v-1272l895 1272h115v-1430h-105z" />
    <glyph glyph-name="afii10027" unicode="&#x419;" horiz-adv-x="1435" 
d="M470 1784h85q0 -180 170 -180t170 180h85q0 -260 -255 -260t-255 260zM1170 0v1272l-895 -1272h-115v1430h105v-1272l895 1272h115v-1430h-105z" />
    <glyph glyph-name="afii10028" unicode="&#x41a;" horiz-adv-x="1232" 
d="M1018 0q-339 540 -427 631.5t-206 91.5v73q200 0 363.5 317t351.5 317h107v-90h-79q-158 0 -302 -271.5t-269 -310.5q75 -13 165 -112.5t440 -645.5h-144zM265 1430v-1430h-105v1430h105z" />
    <glyph glyph-name="afii10029" unicode="&#x41b;" horiz-adv-x="1434" 
d="M0 90q414 0 414 710v630h860v-1430h-105v1340h-650v-540q0 -800 -519 -800v90z" />
    <glyph glyph-name="afii10030" unicode="&#x41c;" horiz-adv-x="1770" 
d="M160 0v1430h105l645 -1307l605 1307h95v-1430h-95v1237l-568 -1237h-86l-606 1247v-1247h-95z" />
    <glyph glyph-name="afii10031" unicode="&#x41d;" horiz-adv-x="1425" 
d="M160 0v1430h105v-650h895v650h105v-1430h-105v690h-895v-690h-105z" />
    <glyph glyph-name="afii10032" unicode="&#x41e;" horiz-adv-x="1645" 
d="M828 80q592 0 592 639q0 631 -592 631q-603 0 -603 -631q0 -639 603 -639zM110 713q0 727 718 727q707 0 707 -727q0 -723 -707 -723q-718 0 -718 723z" />
    <glyph glyph-name="afii10033" unicode="&#x41f;" horiz-adv-x="1425" 
d="M160 0v1430h1105v-1430h-105v1340h-895v-1340h-105z" />
    <glyph glyph-name="afii10034" unicode="&#x420;" horiz-adv-x="1263" 
d="M160 0v1430h600q418 0 418 -393q0 -387 -669 -493l-18 96q570 79 570 389q0 308 -318 308h-478v-1337h-105z" />
    <glyph glyph-name="afii10035" unicode="&#x421;" horiz-adv-x="1405" 
d="M1260 50q-195 -60 -400 -60q-750 0 -750 745q0 705 750 705q205 0 400 -60v-90q-195 60 -380 60q-665 0 -665 -615q0 -655 665 -655q185 0 380 60v-90z" />
    <glyph glyph-name="afii10036" unicode="&#x422;" horiz-adv-x="1095" 
d="M1085 1430v-90h-490v-1340h-105v1340h-480v90h1075z" />
    <glyph glyph-name="afii10037" unicode="&#x423;" horiz-adv-x="1307" 
d="M1282 1430l-493 -1162q-114 -268 -389 -268q-128 0 -236 70v90q106 -70 233 -70q214 0 277 181l-624 1159h115l567 -1060l438 1060h112z" />
    <glyph glyph-name="afii10038" unicode="&#x424;" horiz-adv-x="1644" 
d="M770 113q-670 37 -670 610q0 557 670 594v113h104v-112q670 -34 670 -595q0 -578 -670 -611v-112h-104v113zM770 204v1022q-556 -36 -556 -507q0 -478 556 -515zM874 1227v-1024q556 34 556 516q0 475 -556 508z" />
    <glyph glyph-name="afii10039" unicode="&#x425;" horiz-adv-x="1300" 
d="M588 715l-563 715h125l500 -636l500 636h125l-562 -715l562 -715h-125l-500 636l-500 -636h-125z" />
    <glyph glyph-name="afii10040" unicode="&#x426;" horiz-adv-x="1477" 
d="M160 0v1430h105v-1340h822v1340h105v-1340h185v-470h-105v380h-1112z" />
    <glyph glyph-name="afii10041" unicode="&#x427;" horiz-adv-x="1318" 
d="M1158 1430v-1430h-105v634q-196 -114 -429 -114q-499 0 -499 481v429h105v-432q0 -384 399 -384q249 0 424 133v683h105z" />
    <glyph glyph-name="afii10042" unicode="&#x428;" horiz-adv-x="1775" 
d="M160 0v1430h105v-1340h570v1340h105v-1340h570v1340h105v-1430h-1455z" />
    <glyph glyph-name="afii10043" unicode="&#x429;" horiz-adv-x="1900" 
d="M160 0v1430h105v-1340h570v1340h105v-1340h570v1340h105v-1340h185v-470h-105v380h-1535z" />
    <glyph glyph-name="afii10044" unicode="&#x42a;" horiz-adv-x="1710" 
d="M687 1430v-1337h498q308 0 308 309q0 328 -362 328h-278v90h278q479 0 479 -407q0 -413 -418 -413h-610v1340h-582v90h687z" />
    <glyph glyph-name="afii10045" unicode="&#x42b;" horiz-adv-x="1645" 
d="M265 1430v-1337h498q318 0 318 309q0 328 -372 328h-278v90h278q479 0 479 -407q0 -413 -418 -413h-610v1430h105zM1380 0v1430h105v-1430h-105z" />
    <glyph glyph-name="afii10046" unicode="&#x42c;" horiz-adv-x="1288" 
d="M265 1430v-1337h498q318 0 318 309q0 328 -372 328h-278v90h277q480 0 480 -407q0 -413 -418 -413h-610v1430h105z" />
    <glyph glyph-name="afii10047" unicode="&#x42d;" horiz-adv-x="1375" 
d="M125 150q185 -70 400 -70q612 0 642 600h-970v90h971q-23 580 -643 580q-215 0 -400 -70v100q185 60 400 60q750 0 750 -705q0 -745 -750 -745q-215 0 -400 60v100z" />
    <glyph glyph-name="afii10048" unicode="&#x42e;" horiz-adv-x="2012" 
d="M160 0v1430h104v-660h495q24 670 576 670q577 0 577 -717q0 -733 -577 -733q-562 0 -577 690h-494v-680h-104zM1335 80q462 0 462 639q0 631 -462 631q-473 0 -473 -631q0 -639 473 -639z" />
    <glyph glyph-name="afii10049" unicode="&#x42f;" horiz-adv-x="1225" 
d="M960 0v1337h-468q-288 0 -288 -258q0 -280 440 -345v-71l-475 -663h-144l483 666q-421 124 -421 421q0 343 388 343h590v-1430h-105z" />
    <glyph glyph-name="afii10065" unicode="&#x430;" horiz-adv-x="1095" 
d="M100 297q0 313 416 313q147 0 314 -20v129q0 241 -303 241q-162 0 -332 -50v90q170 50 332 50q408 0 408 -326v-724h-64l-24 104q-197 -104 -382 -104q-365 0 -365 297zM516 520q-311 0 -311 -220q0 -210 260 -210q192 0 365 102v308q-167 20 -314 20z" />
    <glyph glyph-name="afii10066" unicode="&#x431;" horiz-adv-x="1197" 
d="M1086 520q0 -530 -478 -530q-483 0 -483 530v325q0 585 534 585q222 0 393 109v-103q-153 -96 -396 -96q-421 0 -421 -485q121 195 383 195q468 0 468 -506v-24zM608 80q372 0 372 440q0 434 -362 434q-383 0 -383 -434q0 -440 373 -440z" />
    <glyph glyph-name="afii10067" unicode="&#x432;" horiz-adv-x="1086" 
d="M658 90q216 0 216 200t-253 200h-160v81q400 15 400 229q0 160 -178 160h-428v-870h403zM150 0v1050h540q278 0 278 -253q0 -173 -196 -252q214 -53 214 -252q0 -293 -317 -293h-519z" />
    <glyph glyph-name="afii10068" unicode="&#x433;" horiz-adv-x="768" 
d="M150 0v1050h618v-90h-513v-960h-105z" />
    <glyph glyph-name="afii10069" unicode="&#x434;" horiz-adv-x="1348" 
d="M374 90h609v870h-450q0 -619 -159 -870zM0 -380v470h184q244 0 244 870v90h660v-960h185v-470h-105v380h-1064v-380h-104z" />
    <glyph glyph-name="afii10070" unicode="&#x435;" horiz-adv-x="1124" 
d="M583 1050q431 0 431 -477q0 -34 -2 -71h-797q0 -412 436 -412q179 0 318 50v-90q-139 -50 -318 -50q-541 0 -541 537q0 513 473 513zM215 596h698q-6 366 -330 366q-350 0 -368 -366z" />
    <glyph glyph-name="afii10072" unicode="&#x436;" horiz-adv-x="1570" 
d="M30 0l166 264q165 263 273 294q-125 39 -186 220.5t-179 181.5h-79v90h77q198 0 271.5 -232t263.5 -232v-63q-178 0 -326 -277l-147 -246h-134zM836 1050v-1050h-105v1050h105zM1406 0l-147 246q-148 277 -326 277v63q190 0 263.5 232t271.5 232h77v-90h-79
q-118 0 -179 -181.5t-186 -220.5q108 -31 273 -294l166 -264h-134z" />
    <glyph glyph-name="afii10073" unicode="&#x437;" horiz-adv-x="965" 
d="M100 1000q200 60 350 60q415 0 415 -292q0 -154 -138 -233q138 -75 138 -225q0 -320 -415 -320q-150 0 -350 60v100q200 -70 350 -70q310 0 310 230q0 180 -232 180h-328v90h325q235 0 235 188q0 202 -310 202q-150 0 -350 -70v100z" />
    <glyph glyph-name="afii10074" unicode="&#x438;" horiz-adv-x="1145" 
d="M900 0v912l-645 -912h-105v1050h95v-912l645 912h105v-1050h-95z" />
    <glyph glyph-name="afii10075" unicode="&#x439;" horiz-adv-x="1145" 
d="M900 0v912l-645 -912h-105v1050h95v-912l645 912h105v-1050h-95zM318 1430h85q0 -180 170 -180t170 180h85q0 -260 -255 -260t-255 260z" />
    <glyph glyph-name="afii10076" unicode="&#x43a;" horiz-adv-x="989" 
d="M255 1050v-1050h-105v1050h105zM825 0l-147 246q-148 277 -326 277v63q190 0 263.5 232t271.5 232h77v-90h-79q-118 0 -179 -181.5t-186 -220.5q108 -31 273 -294l166 -264h-134z" />
    <glyph glyph-name="afii10077" unicode="&#x43b;" horiz-adv-x="1107" 
d="M0 90q237 0 237 330v630h720v-1050h-105v960h-510v-540q0 -420 -342 -420v90z" />
    <glyph glyph-name="afii10078" unicode="&#x43c;" horiz-adv-x="1420" 
d="M150 0v1050h105l462 -946l448 946h105v-1050h-95v863l-418 -863h-86l-426 863v-863h-95z" />
    <glyph glyph-name="afii10079" unicode="&#x43d;" horiz-adv-x="1145" 
d="M150 0v1050h105v-470h635v470h105v-1050h-105v490h-635v-490h-105z" />
    <glyph glyph-name="afii10080" unicode="&#x43e;" horiz-adv-x="1200" 
d="M100 525q0 535 500 535t500 -535t-500 -535q-498 0 -500 535zM600 80q395 0 395 449q0 441 -395 441t-395 -441q0 -449 395 -449z" />
    <glyph glyph-name="afii10081" unicode="&#x43f;" horiz-adv-x="1145" 
d="M150 0v1050h845v-1050h-105v960h-635v-960h-105z" />
    <glyph glyph-name="afii10082" unicode="&#x440;" horiz-adv-x="1187" 
d="M255 154q189 -54 323 -54q407 0 407 453q0 403 -405 403q-140 0 -325 -24v-778zM150 1007q209 43 432 43q505 0 505 -499q0 -551 -508 -551q-126 0 -324 50v-430h-105v1387z" />
    <glyph glyph-name="afii10083" unicode="&#x441;" horiz-adv-x="1005" 
d="M920 30q-130 -30 -280 -30q-530 0 -530 545q0 505 530 505q150 0 280 -30v-90q-140 30 -270 30q-425 0 -425 -415q0 -455 425 -455q130 0 270 30v-90z" />
    <glyph glyph-name="afii10084" unicode="&#x442;" horiz-adv-x="845" 
d="M845 1050v-90h-370v-960h-105v960h-370v90h845z" />
    <glyph glyph-name="afii10085" unicode="&#x443;" horiz-adv-x="1061" 
d="M25 1050h121l390 -948l384 948h116l-456 -1081q-116 -286 -348 -357l-31 84q182 66 278 288z" />
    <glyph glyph-name="afii10086" unicode="&#x444;" horiz-adv-x="1644" 
d="M770 -7q-670 34 -670 540q0 490 670 524v373h104v-372q670 -31 670 -525q0 -510 -670 -541v-372h-104v373zM770 84v882q-556 -33 -556 -437q0 -411 556 -445zM874 967v-884q556 30 556 446q0 408 -556 438z" />
    <glyph glyph-name="afii10087" unicode="&#x445;" horiz-adv-x="990" 
d="M433 525l-408 525h125l345 -444l345 444h125l-407 -525l407 -525h-125l-345 444l-345 -444h-125z" />
    <glyph glyph-name="afii10088" unicode="&#x446;" horiz-adv-x="1281" 
d="M150 0v1050h105v-960h661v960h105v-960h185v-470h-105v380h-951z" />
    <glyph glyph-name="afii10089" unicode="&#x447;" horiz-adv-x="1138" 
d="M988 1050v-1050h-105v414q-146 -114 -349 -114q-409 0 -409 411v339h105v-342q0 -314 309 -314q219 0 344 133v523h105z" />
    <glyph glyph-name="afii10090" unicode="&#x448;" horiz-adv-x="1555" 
d="M150 0v1050h105v-960h470v960h105v-960h470v960h105v-1050h-1255z" />
    <glyph glyph-name="afii10091" unicode="&#x449;" horiz-adv-x="1665" 
d="M150 0v1050h105v-960h470v960h105v-960h470v960h105v-960h185v-470h-105v380h-1335z" />
    <glyph glyph-name="afii10092" unicode="&#x44a;" horiz-adv-x="1352" 
d="M489 1050v-957h388q268 0 268 229q0 197 -252 197h-268v90h268q359 0 359 -296q0 -313 -368 -313h-500v960h-384v90h489z" />
    <glyph glyph-name="afii10093" unicode="&#x44b;" horiz-adv-x="1450" 
d="M1175 0v1050h125v-1050h-125zM255 1050v-957h408q248 0 248 229q0 197 -252 197h-268v90h267q360 0 360 -296q0 -313 -348 -313h-520v1050h105z" />
    <glyph glyph-name="afii10094" unicode="&#x44c;" horiz-adv-x="1168" 
d="M255 1050v-957h408q248 0 248 229q0 197 -252 197h-268v90h267q360 0 360 -296q0 -313 -348 -313h-520v1050h105z" />
    <glyph glyph-name="afii10095" unicode="&#x44d;" horiz-adv-x="1050" 
d="M100 120q130 -30 280 -30q439 0 460 401h-676v90h677q-16 379 -471 379q-140 0 -270 -30v90q130 30 280 30q570 0 570 -505q0 -545 -570 -545q-150 0 -280 30v90z" />
    <glyph glyph-name="afii10096" unicode="&#x44e;" horiz-adv-x="1702" 
d="M1145 80q342 0 342 449q0 441 -342 441q-353 0 -353 -441q0 -449 353 -449zM150 0v1050h104v-470h426q27 480 465 480q457 0 457 -537q0 -533 -457 -533q-449 0 -466 500h-425v-490h-104z" />
    <glyph glyph-name="afii10097" unicode="&#x44f;" horiz-adv-x="1065" 
d="M810 0v957h-378q-208 0 -208 -178q0 -180 300 -235v-91l-360 -453h-139l386 477q-294 69 -294 300q0 273 318 273h480v-1050h-105z" />
    <glyph glyph-name="afii10071" unicode="&#x451;" horiz-adv-x="1124" 
d="M583 1050q431 0 431 -477q0 -34 -2 -71h-797q0 -412 436 -412q179 0 318 50v-90q-139 -50 -318 -50q-541 0 -541 537q0 513 473 513zM215 596h698q-6 366 -330 366q-350 0 -368 -366zM820 1410v-130h-135v130h135zM500 1410v-130h-135v130h135z" />
    <glyph glyph-name="uni037E" unicode="&#x37e;" horiz-adv-x="545" 
d="M365 185l-150 -435h-105l150 435h105zM385 1050v-125h-135v125h135z" />
    <glyph glyph-name="tonos" unicode="&#x384;" horiz-adv-x="523" 
d="M264 1430h159l-239 -239h-84z" />
    <glyph glyph-name="dieresistonos" unicode="&#x385;" horiz-adv-x="855" 
d="M755 1410v-130h-135v130h135zM235 1410v-130h-135v130h135zM414 1430h159l-239 -239h-84z" />
    <glyph glyph-name="Alphatonos" unicode="&#x386;" horiz-adv-x="1492" 
d="M264 1430h159l-239 -239h-84zM147 0h-112l647 1430h125l650 -1430h-125l-212 480h-641l31 90h571l-343 778z" />
    <glyph glyph-name="anoteleia" unicode="&#x387;" horiz-adv-x="355" 
d="M246 1050v-125h-135v125h135z" />
    <glyph glyph-name="Epsilontonos" unicode="&#x388;" horiz-adv-x="1421" 
d="M114 1430h159l-239 -239h-84zM1272 1430v-90h-834v-570h800v-90h-800v-590h848v-90h-953v1430h939z" />
    <glyph glyph-name="Etatonos" unicode="&#x389;" horiz-adv-x="1678" 
d="M114 1430h159l-239 -239h-84zM333 0v1430h105v-660h975v660h105v-1430h-105v680h-975v-680h-105z" />
    <glyph glyph-name="Iotatonos" unicode="&#x38a;" horiz-adv-x="698" 
d="M114 1430h159l-239 -239h-84zM488 1430v-1430h-105v1430h105z" />
    <glyph glyph-name="Omicrontonos" unicode="&#x38c;" horiz-adv-x="1668" 
d="M114 1430h159l-239 -239h-84zM851 80q592 0 592 639q0 631 -592 631q-603 0 -603 -631q0 -639 603 -639zM133 713q0 727 718 727q707 0 707 -727q0 -723 -707 -723q-718 0 -718 723z" />
    <glyph glyph-name="Upsilontonos" unicode="&#x38e;" horiz-adv-x="1523" 
d="M114 1430h159l-239 -239h-84zM308 1430h125l463 -830l477 830h115l-536 -930v-500h-105v500z" />
    <glyph glyph-name="Omegatonos" unicode="&#x38f;" horiz-adv-x="1633" 
d="M114 1430h159l-239 -239h-84zM158 0v90h355q-370 310 -370 730q0 630 685 630t685 -630q0 -420 -370 -730h355v-90h-500v90q410 330 410 730q0 540 -580 540t-580 -540q0 -400 410 -730v-90h-500z" />
    <glyph glyph-name="iotadieresistonos" unicode="&#x390;" horiz-adv-x="465" 
d="M285 1050v-1050h-105v1050h105zM560 1410v-130h-135v130h135zM40 1410v-130h-135v130h135zM219 1430h159l-239 -239h-84z" />
    <glyph glyph-name="Alpha" unicode="&#x391;" horiz-adv-x="1492" 
d="M147 0h-112l647 1430h125l650 -1430h-125l-212 480h-641l31 90h571l-343 778z" />
    <glyph glyph-name="Beta" unicode="&#x392;" horiz-adv-x="1330" 
d="M160 0v1430h610q408 0 408 -333q0 -244 -296 -349q314 -53 314 -335q0 -413 -447 -413h-589zM738 90q346 0 346 320q0 283 -433 283h-80v71q500 45 500 326q0 250 -308 250h-498v-1250h473z" />
    <glyph glyph-name="Gamma" unicode="&#x393;" horiz-adv-x="1013" 
d="M160 0v1430h853v-90h-748v-1340h-105z" />
    <glyph glyph-name="Epsilon" unicode="&#x395;" horiz-adv-x="1248" 
d="M1099 1430v-90h-834v-570h800v-90h-800v-590h848v-90h-953v1430h939z" />
    <glyph glyph-name="Zeta" unicode="&#x396;" horiz-adv-x="1270" 
d="M1135 1430v-90l-867 -1250h847v-90h-980v80l894 1260h-874v90h980z" />
    <glyph glyph-name="Eta" unicode="&#x397;" horiz-adv-x="1505" 
d="M160 0v1430h105v-660h975v660h105v-1430h-105v680h-975v-680h-105z" />
    <glyph glyph-name="Theta" unicode="&#x398;" horiz-adv-x="1645" 
d="M483 783h675v-100h-675v100zM828 80q592 0 592 639q0 631 -592 631q-603 0 -603 -631q0 -639 603 -639zM110 713q0 727 718 727q707 0 707 -727q0 -723 -707 -723q-718 0 -718 723z" />
    <glyph glyph-name="Iota" unicode="&#x399;" horiz-adv-x="525" 
d="M315 1430v-1430h-105v1430h105z" />
    <glyph glyph-name="Kappa" unicode="&#x39a;" horiz-adv-x="1300" 
d="M265 1430v-1430h-105v1430h105zM1246 1430l-681 -677l705 -753h-157l-653 718v62l642 650h144z" />
    <glyph glyph-name="Lambda" unicode="&#x39b;" horiz-adv-x="1492" 
d="M147 0h-112l647 1430h125l650 -1430h-125l-594 1348z" />
    <glyph glyph-name="Mu" unicode="&#x39c;" horiz-adv-x="1770" 
d="M160 0v1430h105l645 -1307l605 1307h95v-1430h-95v1237l-568 -1237h-86l-606 1247v-1247h-95z" />
    <glyph glyph-name="Nu" unicode="&#x39d;" horiz-adv-x="1505" 
d="M160 0v1430h135l955 -1252v1252h95v-1430h-85l-1005 1312v-1312h-95z" />
    <glyph glyph-name="Xi" unicode="&#x39e;" horiz-adv-x="1196" 
d="M100 100h996v-100h-996v100zM100 1430h996v-100h-996v100zM160 783h876v-100h-876v100z" />
    <glyph glyph-name="Omicron" unicode="&#x39f;" horiz-adv-x="1645" 
d="M828 80q592 0 592 639q0 631 -592 631q-603 0 -603 -631q0 -639 603 -639zM110 713q0 727 718 727q707 0 707 -727q0 -723 -707 -723q-718 0 -718 723z" />
    <glyph glyph-name="Pi" unicode="&#x3a0;" horiz-adv-x="1425" 
d="M160 0v1430h1105v-1430h-105v1340h-895v-1340h-105z" />
    <glyph glyph-name="Rho" unicode="&#x3a1;" horiz-adv-x="1263" 
d="M160 0v1430h600q418 0 418 -393q0 -387 -669 -493l-18 96q570 79 570 389q0 308 -318 308h-478v-1337h-105z" />
    <glyph glyph-name="Sigma" unicode="&#x3a3;" horiz-adv-x="1180" 
d="M100 1430h980v-90h-850l490 -590l-490 -660h850v-90h-980v90l485 660l-485 590v90z" />
    <glyph glyph-name="Tau" unicode="&#x3a4;" horiz-adv-x="1095" 
d="M1085 1430v-90h-490v-1340h-105v1340h-480v90h1075z" />
    <glyph glyph-name="Upsilon" unicode="&#x3a5;" horiz-adv-x="1250" 
d="M35 1430h125l463 -830l477 830h115l-536 -930v-500h-105v500z" />
    <glyph glyph-name="Phi" unicode="&#x3a6;" horiz-adv-x="1644" 
d="M770 113q-670 37 -670 610q0 557 670 594v113h104v-112q670 -34 670 -595q0 -578 -670 -611v-112h-104v113zM770 204v1022q-556 -36 -556 -507q0 -478 556 -515zM874 1227v-1024q556 34 556 516q0 475 -556 508z" />
    <glyph glyph-name="Chi" unicode="&#x3a7;" horiz-adv-x="1320" 
d="M598 715l-563 715h125l500 -636l500 636h125l-562 -715l562 -715h-125l-500 636l-500 -636h-125z" />
    <glyph glyph-name="Psi" unicode="&#x3a8;" horiz-adv-x="1650" 
d="M773 541v889h104v-889q508 20 508 447v442h105v-442q0 -517 -613 -537v-451h-104v451q-613 20 -613 537v442h105v-442q0 -427 508 -447z" />
    <glyph glyph-name="Iotadieresis" unicode="&#x3aa;" horiz-adv-x="525" 
d="M315 1430v-1430h-105v1430h105zM490 1790v-130h-135v130h135zM170 1790v-130h-135v130h135z" />
    <glyph glyph-name="Upsilondieresis" unicode="&#x3ab;" horiz-adv-x="1250" 
d="M35 1430h125l463 -830l477 830h115l-536 -930v-500h-105v500zM853 1790v-130h-135v130h135zM533 1790v-130h-135v130h135z" />
    <glyph glyph-name="alphatonos" unicode="&#x3ac;" horiz-adv-x="1379" 
d="M100 525q0 525 440 525q331 0 477 -425l155 425h107l-208 -528l194 -522h-110l-140 406q-179 -406 -475 -406q-438 0 -440 525zM540 90q245 0 425 439q-170 431 -425 431q-335 0 -335 -431q0 -439 335 -439zM726 1430h159l-239 -239h-84z" />
    <glyph glyph-name="epsilontonos" unicode="&#x3ad;" horiz-adv-x="925" 
d="M825 910q-150 60 -320 60q-290 0 -290 -192q0 -188 325 -188h195v-90h-198q-332 0 -332 -210t300 -210q170 0 320 60v-100q-150 -50 -320 -50q-405 0 -405 300q0 200 218 255q-208 59 -208 233q0 282 405 282q160 0 310 -50v-100zM519 1430h159l-239 -239h-84z" />
    <glyph glyph-name="etatonos" unicode="&#x3ae;" 
d="M160 0v1050h75l13 -134q201 134 394 134q383 0 383 -331v-1099h-105v1102q0 234 -283 234q-189 0 -372 -133v-823h-105zM649 1430h159l-239 -239h-84z" />
    <glyph glyph-name="iotatonos" unicode="&#x3af;" horiz-adv-x="465" 
d="M285 1050v-1050h-105v1050h105zM289 1430h159l-239 -239h-84z" />
    <glyph glyph-name="upsilondieresistonos" unicode="&#x3b0;" horiz-adv-x="1210" 
d="M150 438v612h105v-612q0 -358 350 -358t350 358v612h105v-612q0 -448 -455 -448t-455 448zM933 1410v-130h-135v130h135zM413 1410v-130h-135v130h135zM592 1430h159l-239 -239h-84z" />
    <glyph glyph-name="alpha" unicode="&#x3b1;" horiz-adv-x="1379" 
d="M100 525q0 525 440 525q331 0 477 -425l155 425h107l-208 -528l194 -522h-110l-140 406q-179 -406 -475 -406q-438 0 -440 525zM540 90q245 0 425 439q-170 431 -425 431q-335 0 -335 -431q0 -439 335 -439z" />
    <glyph glyph-name="beta" unicode="&#x3b2;" horiz-adv-x="1196" 
d="M150 -362v1233q0 559 494 559q410 0 410 -336q0 -262 -251 -325q318 -37 318 -388q0 -383 -414 -383q-136 0 -292 60v90q157 -60 294 -60q307 0 307 293q0 338 -451 339v58q398 54 398 316q0 246 -326 246q-382 0 -382 -472v-1230h-105z" />
    <glyph glyph-name="gamma" unicode="&#x3b3;" horiz-adv-x="1080" 
d="M35 1050h115l382 -927l388 927h115l-456 -1050v-380h-105v380z" />
    <glyph glyph-name="delta" unicode="&#x3b4;" horiz-adv-x="1200" 
d="M593 -10q-493 0 -493 540q0 510 493 510q86 0 182 -30q-260 213 -561 340v80h785v-80h-597q685 -315 698 -810q0 -550 -507 -550zM995 536q0 424 -402 424q-392 0 -392 -430q0 -450 393 -450q401 0 401 456z" />
    <glyph glyph-name="epsilon" unicode="&#x3b5;" horiz-adv-x="925" 
d="M825 910q-150 60 -320 60q-290 0 -290 -192q0 -188 325 -188h195v-90h-198q-332 0 -332 -210t300 -210q170 0 320 60v-100q-150 -50 -320 -50q-405 0 -405 300q0 200 218 255q-208 59 -208 233q0 282 405 282q160 0 310 -50v-100z" />
    <glyph glyph-name="zeta" unicode="&#x3b6;" horiz-adv-x="1003" 
d="M303 1430h650v-90q-753 -493 -753 -919q0 -331 298 -331h201q244 0 244 -163q0 -206 -319 -327l-40 78q266 99 266 247q0 75 -146 75h-201q-403 0 -403 417q0 449 701 923h-498v90z" />
    <glyph glyph-name="eta" unicode="&#x3b7;" 
d="M160 0v1050h75l13 -134q201 134 394 134q383 0 383 -331v-1099h-105v1102q0 234 -283 234q-189 0 -372 -133v-823h-105z" />
    <glyph glyph-name="theta" unicode="&#x3b8;" horiz-adv-x="1245" 
d="M235 700q6 -620 393 -620q376 0 382 620h-775zM1009 790q-21 560 -381 560q-370 0 -392 -560h773zM120 713q0 727 508 727q497 0 497 -727q0 -723 -497 -723q-508 0 -508 723z" />
    <glyph glyph-name="iota" unicode="&#x3b9;" horiz-adv-x="465" 
d="M285 1050v-1050h-105v1050h105z" />
    <glyph glyph-name="kappa" unicode="&#x3ba;" horiz-adv-x="1100" 
d="M1041 1050l-521 -487l545 -563h-167l-493 538v52l482 460h154zM265 1050v-1050h-115v1050h115z" />
    <glyph glyph-name="lambda" unicode="&#x3bb;" horiz-adv-x="1091" 
d="M493 1051q-95 237 -277 303l31 84q232 -71 348 -357l456 -1081h-116l-388 945l-386 -945h-121z" />
    <glyph glyph-name="nu" unicode="&#x3bd;" horiz-adv-x="1030" 
d="M10 1050h120l384 -959l386 959h120l-447 -1050h-122z" />
    <glyph glyph-name="xi" unicode="&#x3be;" horiz-adv-x="1018" 
d="M621 1430h244v-90h-243q-302 0 -302 -224t303 -224h232v-90h-222q-408 0 -408 -381q0 -331 298 -331h221q224 0 224 -173q0 -196 -319 -317l-40 68q266 119 266 247q0 85 -126 85h-221q-403 0 -403 417q0 332 269 431q-179 54 -179 274q0 308 406 308z" />
    <glyph glyph-name="omicron" unicode="&#x3bf;" horiz-adv-x="1200" 
d="M600 90q395 0 395 439q0 431 -395 431t-395 -431q0 -439 395 -439zM100 525q0 525 500 525t500 -525q0 -524 -500 -524q-498 0 -500 524z" />
    <glyph glyph-name="rho" unicode="&#x3c1;" horiz-adv-x="1212" 
d="M240 164q189 -64 343 -64q427 0 427 450q0 406 -395 406q-375 0 -375 -406v-386zM617 1050q495 0 495 -500q0 -550 -528 -550q-146 0 -344 60v-440h-105v930q0 500 482 500z" />
    <glyph glyph-name="sigma1" unicode="&#x3c2;" horiz-adv-x="993" 
d="M914 910q-112 50 -265 50q-449 0 -449 -389q0 -283 286 -357l157 -45q300 -74 300 -274q0 -275 -440 -275v90q337 0 337 181q0 136 -221 190l-199 61q-320 79 -320 425q0 483 549 483q153 0 265 -50v-90z" />
    <glyph glyph-name="sigma" unicode="&#x3c3;" horiz-adv-x="1277" 
d="M600 90q395 0 395 439q0 431 -385 431q-405 0 -405 -431q0 -439 395 -439zM100 525q0 525 510 525h617v-90h-311q184 -129 184 -435q0 -524 -500 -524q-498 0 -500 524z" />
    <glyph glyph-name="tau" unicode="&#x3c4;" horiz-adv-x="769" 
d="M0 1050h694v-90h-315v-590q0 -281 222 -281q11 0 23 1v-90q-33 -4 -63 -4q-287 0 -287 374v590h-274v90z" />
    <glyph glyph-name="upsilon" unicode="&#x3c5;" horiz-adv-x="1210" 
d="M150 438v612h105v-612q0 -358 350 -358t350 358v612h105v-612q0 -448 -455 -448t-455 448z" />
    <glyph glyph-name="phi" unicode="&#x3c6;" horiz-adv-x="1505" 
d="M280 1050h125q-200 -225 -200 -500q0 -460 485 -480v585q0 395 324 395q391 0 391 -500q0 -550 -610 -570v-360h-105v360q-590 20 -590 570q0 275 180 500zM1300 550q0 410 -283 410q-222 0 -222 -305v-585q505 20 505 480z" />
    <glyph glyph-name="chi" unicode="&#x3c7;" horiz-adv-x="1050" 
d="M463 335l-423 715h125l360 -609l360 609h125l-422 -715l422 -715h-125l-360 609l-360 -609h-125z" />
    <glyph glyph-name="psi" unicode="&#x3c8;" horiz-adv-x="1610" 
d="M752 81v969h106v-969q497 22 497 457v512h105v-512q0 -525 -602 -547v-371h-106v371q-602 22 -602 547v512h105v-512q0 -435 497 -457z" />
    <glyph glyph-name="omega" unicode="&#x3c9;" horiz-adv-x="1675" 
d="M250 1050h105q-130 -225 -130 -500q0 -460 255 -460q305 0 305 735h105q0 -735 305 -735q255 0 255 460q0 275 -130 500h105q130 -225 130 -500q0 -550 -360 -550q-305 0 -360 389q-50 -389 -355 -389q-360 0 -360 550q0 275 130 500z" />
    <glyph glyph-name="iotadieresis" unicode="&#x3ca;" horiz-adv-x="465" 
d="M285 1050v-1050h-105v1050h105zM460 1410v-130h-135v130h135zM140 1410v-130h-135v130h135z" />
    <glyph glyph-name="upsilondieresis" unicode="&#x3cb;" horiz-adv-x="1210" 
d="M150 438v612h105v-612q0 -358 350 -358t350 358v612h105v-612q0 -448 -455 -448t-455 448zM833 1410v-130h-135v130h135zM513 1410v-130h-135v130h135z" />
    <glyph glyph-name="omicrontonos" unicode="&#x3cc;" horiz-adv-x="1200" 
d="M600 90q395 0 395 439q0 431 -395 431t-395 -431q0 -439 395 -439zM100 525q0 525 500 525t500 -525q0 -524 -500 -524q-498 0 -500 524zM656 1430h159l-239 -239h-84z" />
    <glyph glyph-name="upsilontonos" unicode="&#x3cd;" horiz-adv-x="1210" 
d="M150 438v612h105v-612q0 -358 350 -358t350 358v612h105v-612q0 -448 -455 -448t-455 448zM661 1430h159l-239 -239h-84z" />
    <glyph glyph-name="omegatonos" unicode="&#x3ce;" horiz-adv-x="1675" 
d="M250 1050h105q-130 -225 -130 -500q0 -460 255 -460q305 0 305 735h105q0 -735 305 -735q255 0 255 460q0 275 -130 500h105q130 -225 130 -500q0 -550 -360 -550q-305 0 -360 389q-50 -389 -355 -389q-360 0 -360 550q0 275 130 500zM894 1430h159l-239 -239h-84z" />
    <glyph glyph-name="zero.osf" unicode="&#xe012;" horiz-adv-x="1275" 
d="M643 80q402 0 402 449q0 441 -402 441q-413 0 -413 -441q0 -449 413 -449zM115 523q0 537 528 537q517 0 517 -537q0 -533 -517 -533q-528 0 -528 533z" />
    <glyph glyph-name="one.osf" unicode="&#xe013;" horiz-adv-x="854" 
d="M405 90v831h-290v69l395 60v-960h279v-90h-684v90h300z" />
    <glyph glyph-name="two.osf" unicode="&#xe014;" horiz-adv-x="1100" 
d="M105 0v90q755 397 755 640q0 240 -350 240q-200 0 -395 -110v100q195 100 395 100q455 0 455 -330q0 -270 -687 -640h737v-90h-910z" />
    <glyph glyph-name="three.osf" unicode="&#xe015;" horiz-adv-x="1110" 
d="M100 990q200 60 390 60q475 0 475 -340q0 -256 -248 -315q248 -55 248 -315q0 -360 -475 -360q-190 0 -390 60v100q200 -70 390 -70q370 0 370 270t-332 270h-278v90h275q335 0 335 270q0 250 -370 250q-190 0 -390 -70v100z" />
    <glyph glyph-name="four.osf" unicode="&#xe016;" horiz-adv-x="1165" 
d="M917 -280h-105v309h-752v90l595 930h114l-596 -930h639v538h105v-538l188 -36v-54h-188v-309z" />
    <glyph glyph-name="five.osf" unicode="&#xe017;" horiz-adv-x="1145" 
d="M205 1050h774v-90h-687l-33 -502q187 32 286 32q500 0 500 -360q0 -420 -560 -420q-180 0 -330 60v100q150 -70 340 -70q445 0 445 330q0 270 -395 270q-195 0 -390 -50z" />
    <glyph glyph-name="six.osf" unicode="&#xe018;" horiz-adv-x="1265" 
d="M120 520q0 526 658 853l41 -88q-377 -184 -519 -438q171 53 346 53q504 0 504 -440q0 -470 -523 -470q-507 0 -507 530zM636 80q413 0 413 380q0 350 -412 350q-204 0 -374 -48q-48 -100 -48 -236q0 -446 421 -446z" />
    <glyph glyph-name="seven.osf" unicode="&#xe019;" horiz-adv-x="1060" 
d="M40 1050h930v-90l-642 -1240h-131l662 1240h-819v90z" />
    <glyph glyph-name="eight.osf" unicode="&#xe020;" horiz-adv-x="1250" 
d="M115 374q0 253 282 331q-242 75 -242 303q0 336 470 336t470 -336q0 -228 -247 -303q287 -78 287 -331q0 -384 -510 -384t-510 384zM990 1008q0 242 -373 242q-357 0 -357 -242q0 -268 370 -268q360 0 360 268zM1030 378q0 272 -413 272q-397 0 -397 -272
q0 -298 410 -298q400 0 400 298z" />
    <glyph glyph-name="nine.osf" unicode="&#xe021;" horiz-adv-x="1265" 
d="M1150 528q0 -526 -658 -853l-41 88q377 184 519 438q-171 -53 -346 -53q-504 0 -504 440q0 470 523 470q507 0 507 -530zM634 968q-413 0 -413 -380q0 -350 412 -350q204 0 374 48q48 100 48 236q0 446 -421 446z" />
    <glyph glyph-name="g.alt" unicode="&#xe022;" horiz-adv-x="1135" 
d="M560 1050q146 0 243 -50l126 50h156v-90h-215q114 -89 115 -253q0 -352 -438 -352q-93 0 -187 30q-135 -93 -135 -184q0 -81 129 -81h394q297 0 297 -225q0 -295 -492 -295q-252 0 -463 90v110q214 -110 467 -110q383 0 383 205q0 135 -189 135h-403q-223 0 -223 174
q0 104 147 216q-152 100 -152 278q0 352 440 352zM555 450q325 0 325 255t-325 255q-330 0 -330 -255t330 -255z" />
    <glyph glyph-name="gcircumflex.alt" unicode="&#xe023;" horiz-adv-x="1135" 
d="M560 1050q146 0 243 -50l126 50h156v-90h-215q114 -89 115 -253q0 -352 -438 -352q-93 0 -187 30q-135 -93 -135 -184q0 -81 129 -81h394q297 0 297 -225q0 -295 -492 -295q-252 0 -463 90v110q214 -110 467 -110q383 0 383 205q0 135 -189 135h-403q-223 0 -223 174
q0 104 147 216q-152 100 -152 278q0 352 440 352zM555 450q325 0 325 255t-325 255q-330 0 -330 -255t330 -255zM512 1430h110l195 -260h-100l-152 194l-148 -194h-100z" />
    <glyph glyph-name="gbreve.alt" unicode="&#xe024;" horiz-adv-x="1135" 
d="M560 1050q146 0 243 -50l126 50h156v-90h-215q114 -89 115 -253q0 -352 -438 -352q-93 0 -187 30q-135 -93 -135 -184q0 -81 129 -81h394q297 0 297 -225q0 -295 -492 -295q-252 0 -463 90v110q214 -110 467 -110q383 0 383 205q0 135 -189 135h-403q-223 0 -223 174
q0 104 147 216q-152 100 -152 278q0 352 440 352zM555 450q325 0 325 255t-325 255q-330 0 -330 -255t330 -255zM304 1430h85q0 -180 170 -180t170 180h85q0 -260 -255 -260t-255 260z" />
    <glyph glyph-name="gdotaccent.alt" unicode="&#xe025;" horiz-adv-x="1135" 
d="M560 1050q146 0 243 -50l126 50h156v-90h-215q114 -89 115 -253q0 -352 -438 -352q-93 0 -187 30q-135 -93 -135 -184q0 -81 129 -81h394q297 0 297 -225q0 -295 -492 -295q-252 0 -463 90v110q214 -110 467 -110q383 0 383 205q0 135 -189 135h-403q-223 0 -223 174
q0 104 147 216q-152 100 -152 278q0 352 440 352zM555 450q325 0 325 255t-325 255q-330 0 -330 -255t330 -255zM632 1430v-150h-165v150h165z" />
    <glyph glyph-name="gcomma.alt" unicode="&#xe026;" horiz-adv-x="1135" 
d="M560 1050q146 0 243 -50l126 50h156v-90h-215q114 -89 115 -253q0 -352 -438 -352q-93 0 -187 30q-135 -93 -135 -184q0 -81 129 -81h394q297 0 297 -225q0 -295 -492 -295q-252 0 -463 90v110q214 -110 467 -110q383 0 383 205q0 135 -189 135h-403q-223 0 -223 174
q0 104 147 216q-152 100 -152 278q0 352 440 352zM555 450q325 0 325 255t-325 255q-330 0 -330 -255t330 -255zM704 1430l-150 -280h-105l150 280h105z" />
    <glyph glyph-name="k.alt" unicode="&#xe027;" horiz-adv-x="1002" 
d="M996 1050l-490 -481l496 -569h-147l-444 525v73l447 452h138zM150 0v1430h105v-1430h-105z" />
    <glyph glyph-name="kcomma.alt" unicode="&#xe028;" horiz-adv-x="1002" 
d="M150 0v1430h105v-1430h-105zM596 -100l-150 -280h-105l150 280h105zM996 1050l-490 -481l496 -569h-147l-444 525v73l447 452h138z" />
    <glyph glyph-name="germandbls.cap" unicode="&#xe029;" horiz-adv-x="1511" 
d="M160 0v920q0 530 665 530q253 0 555 -90v-80l-506 -500h59q468 0 468 -360q0 -422 -484 -422q-176 0 -342 70v90q177 -70 344 -70q377 0 377 332q0 271 -375 272h-176v78l522 522q-238 68 -442 68q-560 0 -560 -440v-920h-105z" />
    </font>
</defs>
</svg>
